<?xml version="1.0" encoding="UTF-8"?>
<!-- Generator: Adobe Illustrator 15.0.0, SVG Export Plug-In . SVG Version: 6.00 Build 0)  -->
<!DOCTYPE svg PUBLIC "-//W3C//DTD SVG 1.1//EN" "http://www.w3.org/Graphics/SVG/1.1/DTD/svg11.dtd">
<svg version="1.1" xmlns="http://www.w3.org/2000/svg" xmlns:xlink="http://www.w3.org/1999/xlink" x="0px" y="0px" width="580px" height="580px" viewBox="0 0 580 580" enable-background="new 0 0 580 580" xml:space="preserve">
<g id="Layer_2_1_">
	<g id="Layer_2">
		<g id="g1327">
			<path id="path1329" fill="#111111" stroke="#EEEEEE" stroke-width="3.408" d="M66.275,1.768     c-41.335,0-64.571,21.371-64.571,65.036v450.123c0,40.844,20.895,62.229,62.192,62.229h452.024     c41.307,0,62.229-20.315,62.229-62.229V66.804c0-42.602-20.923-65.036-63.521-65.036C514.625,1.768,66.133,1.625,66.275,1.768z"/>
		</g>
	</g>
</g>
<g id="Layer_1">
	<path id="flowRoot6828" fill="#FFFFFF" d="M246.328,92c0-13.323,4.319-24.24,12.953-32.752   c8.637-8.512,19.738-12.768,33.308-12.769c14.559,0.001,26.646,4.504,36.27,13.509c9.623,9.005,14.434,19.183,14.434,30.532   c0,8.389-1.912,16.778-5.736,25.166c-3.824,8.39-9.869,15.113-18.135,20.171s-16.715,7.587-25.352,7.587   c-11.842,0-22.759-5.059-32.752-15.174C251.325,118.154,246.328,106.065,246.328,92L246.328,92z M194.516,533.52l-0.74-24.056   l41.821-5.551c6.168-1.728,10.424-4.257,12.767-7.587c2.345-3.331,3.517-10.794,3.517-22.392v-4.07   c0-2.96,0.186-8.327,0.556-16.099c0.37-7.772,0.555-14.619,0.555-20.54c0-4.688-0.37-13.693-1.11-27.017l0.37-18.505l-0.37-17.395   l0.74-60.324c0-7.65-0.74-15.544-2.22-23.687c-2.715-3.702-7.648-6.908-14.804-9.623c-7.156-2.713-19.615-4.688-37.379-5.921   V250.03c25.413-1.479,47.741-6.785,66.986-15.914c13.076-5.92,27.263-16.407,42.56-31.457h24.797   c0.986,30.594,1.48,70.317,1.48,119.17l-2.592,150.997c0,10.362,0.494,19.738,1.48,28.126c7.65,2.715,20.109,5.43,37.379,8.143   c6.662,0.987,11.969,2.221,15.916,3.701l-0.371,20.354c-6.662,0.248-11.596,0.37-14.803,0.37c-3.701,0-9.375-0.245-17.025-0.739   c-25.166-1.233-58.844-1.851-101.035-1.851c-12.09,0-23.809,0.432-35.158,1.295C206.482,533.089,198.71,533.52,194.516,533.52   L194.516,533.52z"/>
</g>
</svg>