<?xml version="1.0" standalone="no"?>
<!DOCTYPE svg PUBLIC "-//W3C//DTD SVG 20010904//EN"
 "http://www.w3.org/TR/2001/REC-SVG-20010904/DTD/svg10.dtd">
<svg version="1.0" xmlns="http://www.w3.org/2000/svg"
 width="700.000000pt" height="700.000000pt" viewBox="0 0 700.000000 700.000000"
 preserveAspectRatio="xMidYMid meet">
<metadata>
Created by potrace 1.11, written by Peter Selinger 2001-2013
</metadata>
<g transform="translate(0.000000,700.000000) scale(0.100000,-0.100000)"
fill="#000000" stroke="none">
<path d="M3652 6988 c-231 -29 -462 -123 -649 -265 -85 -64 -247 -230 -288
-296 l-30 -47 -55 8 c-30 4 -136 7 -235 6 -205 -1 -306 -18 -460 -76 -231 -86
-404 -272 -460 -493 -21 -84 -19 -235 4 -327 41 -161 159 -339 287 -437 146
-110 304 -166 501 -178 62 -3 113 -8 113 -10 0 -13 -60 -121 -108 -195 -43
-64 -64 -88 -83 -92 -21 -4 -29 -14 -40 -51 -16 -53 -97 -158 -248 -319 -55
-60 -101 -113 -101 -118 0 -4 -9 -8 -20 -8 -26 0 -25 18 1 47 17 17 24 41 29
105 8 91 8 95 -23 109 -25 10 -60 31 -67 40 -11 12 -74 39 -92 39 -10 0 -31 9
-46 20 -17 12 -35 18 -45 14 -17 -6 -37 -61 -37 -100 0 -12 -7 -27 -16 -35 -8
-7 -13 -21 -10 -32 2 -11 -1 -28 -7 -38 -15 -24 1 -53 32 -57 34 -5 45 -38 21
-62 -24 -24 -24 -29 -5 -56 8 -12 12 -24 9 -26 -2 -3 0 -18 6 -34 10 -26 7
-24 -25 13 -20 24 -43 43 -50 43 -20 0 -47 -31 -41 -46 4 -10 -4 -14 -27 -14
-44 0 -57 -15 -57 -66 0 -33 5 -47 25 -62 14 -11 25 -28 25 -38 0 -9 7 -25 15
-34 12 -14 13 -23 5 -45 -9 -23 -7 -32 15 -61 32 -41 67 -45 90 -10 9 13 22
27 30 30 23 9 5 -26 -35 -64 -47 -45 -54 -66 -32 -88 18 -18 18 -20 -1 -63
-10 -24 -33 -93 -52 -154 l-33 -109 -66 -27 c-127 -51 -231 -160 -285 -295
-74 -188 -74 -484 0 -779 60 -242 167 -490 280 -650 91 -128 253 -286 380
-371 57 -38 118 -75 135 -83 29 -11 32 -17 38 -73 9 -78 41 -163 70 -185 31
-25 41 -91 21 -139 -8 -20 -15 -47 -15 -61 0 -36 33 -26 41 12 8 37 8 37 23
-54 19 -111 4 -168 -68 -266 -31 -43 -56 -86 -56 -96 0 -24 35 -43 56 -31 12
6 22 3 38 -13 33 -33 121 -62 269 -89 211 -39 346 -50 602 -50 345 -1 462 23
558 113 59 55 123 136 165 211 18 30 32 50 32 44 0 -24 105 -171 165 -231 72
-72 120 -96 236 -118 247 -46 783 -18 1064 57 98 26 127 40 154 74 88 112 -89
311 -441 494 l-111 58 99 49 c93 47 100 52 122 99 29 61 62 84 177 124 50 18
124 50 165 71 67 34 84 39 145 39 81 0 134 21 183 70 45 44 63 83 69 149 5 49
12 63 54 111 143 167 266 417 338 690 51 192 64 290 65 465 0 170 -17 270 -63
379 -48 110 -145 215 -241 261 -33 15 -37 23 -58 103 -50 190 -164 438 -287
623 -96 144 -175 237 -387 455 -215 221 -277 298 -343 425 l-44 86 82 7 c193
16 315 64 413 162 200 200 202 535 4 824 -103 149 -301 287 -454 315 -35 7
-37 10 -31 34 3 14 9 69 12 122 6 105 -8 172 -52 259 -67 131 -247 263 -443
324 -131 41 -367 56 -540 34z m297 -39 c208 -19 360 -75 497 -183 158 -123
218 -283 179 -480 -10 -48 -15 -89 -13 -91 2 -3 44 -16 92 -30 48 -14 106 -35
129 -47 178 -90 319 -253 383 -443 49 -144 43 -339 -13 -450 -81 -159 -243
-251 -462 -262 -98 -5 -162 2 -345 33 -36 7 -38 6 -28 -13 15 -26 53 -42 143
-57 72 -11 75 -13 94 -52 57 -110 103 -186 156 -256 32 -43 57 -78 56 -78 -2
0 -47 18 -102 40 -288 118 -648 186 -1040 197 -484 13 -900 -63 -1284 -236
-63 -28 -118 -51 -121 -51 -4 0 -6 15 -5 33 0 21 19 59 54 111 52 77 131 224
131 244 0 5 37 15 82 22 134 21 173 34 173 56 0 24 -21 23 -130 -2 -117 -28
-358 -26 -475 3 -160 40 -274 106 -381 221 -283 303 -272 730 27 976 109 90
252 150 431 182 106 18 344 22 466 6 l67 -8 59 80 c32 45 96 118 142 163 241
238 536 364 889 381 19 1 86 -3 149 -9z m-1758 -2491 l-9 -33 -1 36 c-1 20 2
39 6 43 13 12 15 -10 4 -46z m51 -43 c-3 -17 1 -27 12 -31 14 -5 12 -10 -14
-25 -17 -11 -44 -40 -61 -66 -27 -43 -30 -55 -27 -110 3 -48 1 -64 -11 -68
-40 -16 -41 66 -1 187 17 50 30 97 30 106 0 11 3 12 15 2 11 -9 18 -8 36 9 28
26 27 26 21 -4z m88 -60 c0 -7 5 -15 11 -17 6 -2 7 -11 3 -22 -6 -16 -9 -14
-25 15 -17 34 -16 55 2 44 5 -4 9 -12 9 -20z m-16 -109 c-4 -12 -12 -24 -18
-28 -7 -5 -6 -8 4 -8 12 -1 11 -4 -4 -15 -10 -7 -15 -18 -11 -24 3 -6 1 -11
-4 -11 -6 0 -11 -10 -11 -22 0 -18 -2 -20 -9 -9 -5 8 -22 16 -38 18 -15 2 -35
11 -43 20 -8 9 -9 13 -2 9 7 -4 12 -2 12 6 1 7 11 25 23 41 l23 27 22 -20 c17
-16 22 -17 22 -6 0 8 -5 18 -10 21 -7 4 -7 13 0 26 6 11 8 25 4 32 -4 6 5 1
19 -12 20 -18 25 -30 21 -45z m646 -116 c0 -5 -5 -10 -11 -10 -5 0 -7 5 -4 10
3 6 8 10 11 10 2 0 4 -4 4 -10z m303 -20 c110 -41 173 -93 272 -225 l15 -20
15 20 c70 93 98 123 152 162 92 66 158 87 273 87 115 0 180 -21 274 -88 240
-171 317 -527 176 -813 -89 -180 -260 -303 -423 -303 -51 0 -55 2 -60 28 -15
76 -153 189 -284 233 -167 56 -372 -3 -498 -143 -26 -29 -47 -64 -51 -84 -6
-32 -8 -34 -48 -34 -59 0 -141 26 -207 66 -60 36 -159 134 -159 157 0 8 11 22
25 31 36 24 35 86 -1 115 -25 20 -26 22 -13 71 7 28 19 55 25 61 9 7 39 7 91
1 47 -6 85 -6 96 0 22 11 24 90 2 108 -8 7 -15 23 -15 36 0 13 -10 32 -22 44
-22 20 -22 20 -1 20 11 0 27 7 34 16 7 9 23 20 36 25 27 10 31 50 9 69 -8 6
-12 19 -9 28 16 45 53 121 62 127 16 10 13 46 -6 67 -15 17 -15 18 8 18 29 0
49 17 49 42 0 10 5 27 12 37 9 15 9 26 -1 47 l-12 27 64 -6 c35 -3 89 -15 120
-27z m-1149 -2 c14 -20 14 -23 -4 -35 -24 -17 -35 -11 -55 28 -15 29 -15 29
14 29 19 0 35 -8 45 -22z m911 -38 c0 -23 -4 -30 -20 -30 -11 0 -32 -6 -47
-14 -25 -13 -26 -13 -22 7 2 12 9 24 16 28 7 4 22 15 33 23 30 23 40 19 40
-14z m-843 -64 c12 -18 9 -23 -13 -29 -11 -3 -23 -15 -26 -26 -3 -11 -10 -18
-15 -15 -6 4 -14 1 -19 -7 -9 -15 -29 26 -35 75 -3 22 0 27 11 22 9 -3 15 0
15 9 0 12 6 12 38 -2 20 -8 40 -20 44 -27z m621 -11 c7 -18 -6 -27 -27 -19
-13 5 -14 9 -5 20 15 18 25 18 32 -1z m-1033 -56 c0 -20 15 -26 25 -9 5 8 11
7 21 -1 19 -16 18 -27 -7 -34 -44 -14 -65 -125 -23 -125 11 0 14 5 10 16 -7
18 11 57 23 49 14 -8 9 -109 -6 -123 -16 -16 -18 -66 -2 -57 5 4 14 18 20 32
5 14 14 21 20 17 8 -5 8 -9 -1 -14 -7 -4 -10 -12 -6 -18 3 -6 1 -14 -4 -17 -6
-4 -15 -18 -20 -31 -13 -32 -32 -30 -53 6 -10 16 -38 41 -62 56 -54 31 -57 44
-10 44 40 0 41 2 19 35 -16 24 -15 25 6 25 19 0 21 5 19 38 -2 21 0 43 4 49 4
6 0 18 -8 26 -19 20 -19 27 0 27 8 0 15 9 15 21 0 11 5 17 10 14 6 -3 10 -15
10 -26z m1193 -3 c10 -25 -4 -54 -29 -60 -13 -4 -28 -15 -34 -26 -6 -11 -16
-20 -22 -20 -6 0 -3 9 6 19 10 10 18 33 18 49 1 20 8 34 22 40 29 14 33 14 39
-2z m-830 -99 c6 4 8 0 4 -10 -4 -12 -2 -14 10 -10 10 4 14 2 10 -4 -4 -6 -15
-13 -25 -15 -14 -4 -18 2 -18 26 -1 17 1 25 3 18 3 -6 10 -9 16 -5z m790 -26
c-5 -19 -39 -35 -47 -22 -3 4 -1 13 5 21 5 8 9 11 9 7 0 -4 8 -3 18 2 9 6 18
11 19 11 0 0 -1 -9 -4 -19z m-867 -76 c5 -21 10 -23 36 -18 30 6 31 5 24 -23
-4 -16 -8 -29 -9 -29 -1 0 -22 -7 -46 -15 -49 -17 -73 -48 -28 -36 23 5 28 2
33 -19 8 -33 24 -32 24 1 0 21 4 25 23 23 46 -6 64 36 31 72 -10 11 -14 25 -9
36 6 17 8 16 25 -5 10 -12 20 -28 23 -35 2 -6 8 -9 12 -5 4 4 -1 20 -11 37
-23 39 -11 50 25 23 25 -18 31 -19 41 -7 20 24 33 17 27 -14 -5 -25 -4 -28 14
-24 16 5 20 2 18 -12 -4 -20 -21 -31 -60 -39 -15 -3 -37 -15 -50 -26 l-24 -21
33 6 c28 6 32 4 32 -14 0 -13 -10 -26 -25 -33 -15 -6 -24 -17 -21 -24 3 -8 -1
-19 -8 -26 -7 -7 -11 -19 -8 -26 4 -13 -35 -51 -54 -52 -6 0 -17 -7 -24 -15
-7 -8 -23 -15 -36 -15 -19 0 -24 5 -24 24 0 13 -7 26 -15 30 -20 7 -19 26 1
26 8 0 13 4 9 10 -7 12 -34 2 -62 -23 -26 -23 -32 -7 -7 18 19 19 11 48 -13
43 -11 -2 -19 -14 -21 -31 -2 -15 -8 -27 -13 -27 -16 0 -23 32 -11 51 7 10 12
25 12 33 0 8 12 21 28 28 21 11 27 20 27 46 0 17 3 32 7 32 14 0 8 37 -7 50
-22 18 -19 33 4 20 28 -15 38 -13 44 10 7 28 25 25 33 -5z m868 10 c4 -10 -1
-15 -15 -15 -16 0 -19 -4 -14 -20 3 -11 3 -20 -2 -20 -4 0 -19 -3 -32 -7 -24
-6 -23 -5 9 35 36 46 45 50 54 27z m-79 -154 c3 -5 1 -12 -5 -16 -5 -3 -10
-19 -10 -36 0 -26 4 -29 30 -29 22 0 28 -4 24 -15 -7 -18 -43 -19 -79 -3 l-25
11 22 24 c15 16 17 23 7 23 -12 0 -11 2 1 10 12 8 12 10 1 10 -11 0 -11 3 -1
15 14 17 26 19 35 6z m-1015 -31 c0 -5 11 -12 25 -16 16 -4 25 -13 25 -26 0
-21 -11 -18 -47 15 -24 22 -30 37 -13 37 6 0 10 -4 10 -10z m825 -31 c-5 -15
-1 -19 19 -19 29 0 30 -3 16 -31 -8 -13 -21 -19 -46 -19 -56 0 -132 -51 -122
-82 3 -8 13 -3 28 15 27 31 63 37 58 10 -2 -10 -14 -23 -27 -30 -14 -6 -26
-19 -27 -29 -3 -20 -22 -34 -49 -34 -29 -1 -59 -26 -52 -44 6 -14 -26 -46 -45
-46 -4 0 -6 28 -5 63 1 50 -3 68 -21 94 -23 33 -29 63 -12 63 6 0 10 -6 10
-14 0 -8 10 -18 22 -22 13 -4 28 -14 35 -23 10 -14 13 -12 23 16 10 28 16 32
36 27 19 -5 27 0 41 25 10 17 24 31 32 31 9 0 12 10 9 35 -5 40 -5 39 23 23
17 -11 22 -10 30 5 13 22 32 12 24 -14z m-673 -116 c-48 -39 -53 -28 -9 21 15
17 24 21 29 13 4 -7 -4 -21 -20 -34z m548 -123 c0 -12 -40 -34 -47 -26 -9 8
17 36 33 36 8 0 14 -4 14 -10z m1108 -162 l32 -10 0 -291 0 -292 -41 -47 c-24
-29 -49 -48 -61 -48 -62 0 -378 405 -378 484 0 40 31 86 84 124 120 86 250
115 364 80z m1546 -658 c68 -294 80 -373 80 -555 0 -190 -19 -286 -88 -429
-39 -84 -162 -263 -173 -253 -2 3 9 31 25 63 37 73 86 225 106 324 41 208 42
391 5 769 -10 107 -21 242 -23 300 l-5 106 14 -65 c7 -36 34 -153 59 -260z
m-1854 104 l53 -67 -54 7 c-167 20 -270 39 -261 48 13 13 173 78 193 78 8 0
39 -30 69 -66z m578 22 c68 -27 108 -51 95 -59 -11 -7 -243 -30 -248 -25 -7 7
69 107 81 108 5 0 38 -11 72 -24z m-1979 -40 c-9 -8 -10 -7 -5 7 3 10 7 26 7
35 1 9 4 6 6 -7 3 -13 -1 -28 -8 -35z m177 -21 c-18 -48 121 -60 169 -15 l24
22 36 -22 c64 -40 105 -115 105 -196 0 -37 -67 -174 -85 -174 -7 0 -25 -10
-40 -22 -24 -19 -27 -26 -23 -69 l5 -47 -43 -11 c-24 -6 -54 -11 -68 -11 -41
0 -39 -17 4 -34 56 -22 68 -20 100 14 21 23 30 27 38 17 17 -21 33 -129 30
-202 l-3 -70 -60 -6 c-76 -7 -90 -14 -105 -48 -23 -56 19 -122 91 -141 22 -6
39 -17 39 -24 0 -25 -51 -191 -62 -201 -7 -7 -9 -3 -5 12 3 13 1 26 -4 29 -5
3 -9 16 -9 29 0 13 -5 27 -11 30 -6 4 -8 13 -5 20 3 8 -2 19 -10 26 -9 7 -13
21 -11 31 3 10 2 18 -2 18 -4 0 -14 32 -21 71 -7 43 -15 66 -20 59 -5 -8 -13
10 -20 46 -7 32 -23 83 -36 113 -13 29 -24 68 -24 85 0 39 -21 116 -48 178
-11 25 -18 49 -15 52 4 3 1 6 -5 6 -7 0 -12 10 -12 23 0 13 -3 27 -7 30 -3 4
-7 18 -8 31 0 19 8 26 47 40 27 9 48 21 48 25 0 5 -23 12 -50 16 -64 9 -84 27
-99 92 -12 48 -11 55 10 92 32 58 93 97 153 100 12 1 16 -4 12 -14z m2601
-437 c-4 -146 -30 -384 -43 -397 -2 -2 -106 13 -231 33 -125 21 -260 40 -300
43 -67 5 -73 4 -95 -20 l-24 -25 -169 23 c-94 14 -354 49 -578 79 -224 30
-411 58 -416 60 -5 3 -12 17 -15 32 -29 112 -183 224 -311 224 -61 0 -70 8
-53 45 10 21 17 26 37 21 192 -42 536 -90 756 -106 450 -33 979 20 1335 134
124 39 114 53 107 -146z m-2146 -18 c103 -20 202 -107 215 -191 4 -21 12 -43
18 -48 7 -6 282 -47 611 -92 330 -45 601 -82 602 -83 4 -3 -30 -212 -36 -218
-6 -7 -220 31 -981 176 l-235 45 -40 -39 c-94 -90 -178 -106 -333 -64 -96 25
-132 43 -132 64 0 4 46 10 103 12 96 3 106 5 141 32 100 76 102 255 4 314 -18
11 -57 27 -85 37 -37 12 -53 22 -53 34 0 10 3 21 7 24 10 11 134 8 194 -3z
m-671 -170 c-1 -25 -7 -74 -15 -110 -8 -36 -15 -96 -16 -135 l-1 -70 -14 50
c-23 87 -36 232 -29 333 l8 95 33 -59 c25 -43 34 -71 34 -104z m569 24 c27
-19 52 -72 46 -100 -2 -10 -6 -31 -10 -46 -5 -26 -40 -68 -57 -68 -4 0 -7 42
-6 93 1 50 -2 102 -6 115 -9 26 1 28 33 6z m-332 -328 c9 -9 -79 -6 -102 4
-13 5 0 7 38 5 32 -1 61 -6 64 -9z m1238 -121 c308 -58 569 -107 581 -110 11
-2 26 -16 34 -29 7 -14 26 -30 42 -37 16 -7 141 -31 278 -53 l249 -41 -43
-129 c-24 -70 -49 -132 -57 -137 -7 -4 -54 -21 -104 -38 -503 -167 -1040 -184
-1562 -51 -84 22 -172 47 -194 57 l-42 18 -78 260 c-44 143 -79 268 -79 279 0
14 5 17 25 12 122 -31 246 -1 325 78 14 14 34 25 45 25 11 1 272 -46 580 -104z
m-1170 -95 c-9 -14 -72 -23 -102 -14 -26 7 -24 9 22 14 79 11 87 11 80 0z m0
-230 c-3 -5 -26 -10 -50 -10 -24 0 -47 5 -50 10 -4 6 15 10 50 10 35 0 54 -4
50 -10z m165 -411 l123 -61 -94 -50 c-52 -27 -127 -72 -167 -99 -57 -38 -72
-45 -67 -30 10 32 -5 90 -33 122 -20 25 -24 37 -19 72 3 25 13 46 23 52 10 6
34 24 53 42 24 21 40 28 47 22 6 -5 67 -36 134 -70z m-241 -214 c0 -16 -4 -39
-9 -50 -7 -16 -9 -14 -9 15 -1 19 -4 53 -7 75 -5 39 -5 40 10 15 8 -14 15 -38
15 -55z"/>
<path d="M3276 3588 c-77 -16 -135 -87 -136 -166 -1 -138 166 -221 276 -137
145 111 39 341 -140 303z"/>
<path d="M3771 3590 c-109 -25 -163 -148 -109 -249 43 -81 138 -111 224 -72
53 24 86 71 92 132 6 62 -2 90 -34 129 -44 52 -108 74 -173 60z"/>
<path d="M2165 3580 c-3 -5 -1 -10 4 -10 6 0 11 5 11 10 0 6 -2 10 -4 10 -3 0
-8 -4 -11 -10z"/>
<path d="M1980 3566 c0 -9 5 -16 10 -16 6 0 10 4 10 9 0 6 -4 13 -10 16 -5 3
-10 -1 -10 -9z"/>
</g>
</svg>
