<svg xmlns="http://www.w3.org/2000/svg" xmlns:cc="http://creativecommons.org/ns#" xmlns:dc="http://purl.org/dc/elements/1.1/" xmlns:rdf="http://www.w3.org/1999/02/22-rdf-syntax-ns#" xmlns:xlink="http://www.w3.org/1999/xlink" width="180" height="180">
  <defs>
    <linearGradient id="i">
      <stop offset="0" stop-color="#e95e02"/>
      <stop offset="1" stop-color="#e95e02" stop-opacity="0"/>
    </linearGradient>
    <linearGradient id="f">
      <stop offset="0" stop-color="#176317"/>
      <stop offset="1" stop-color="#27a827" stop-opacity="0"/>
    </linearGradient>
    <linearGradient id="e">
      <stop offset="0" stop-color="#145514"/>
      <stop offset="1" stop-color="#27a827" stop-opacity="0"/>
    </linearGradient>
    <linearGradient id="c">
      <stop offset="0" stop-opacity=".2"/>
      <stop offset="1" stop-color="#ff6e0e" stop-opacity="0"/>
    </linearGradient>
    <linearGradient id="b">
      <stop offset="0" stop-color="#f60"/>
      <stop offset="1" stop-color="#ff8534"/>
    </linearGradient>
    <linearGradient id="d">
      <stop offset="0" stop-color="green"/>
      <stop offset="1" stop-color="green" stop-opacity="0"/>
    </linearGradient>
    <linearGradient id="h">
      <stop offset="0" stop-color="#ffb142"/>
      <stop offset=".9" stop-color="#ffb141"/>
      <stop offset="1" stop-color="#c87600"/>
    </linearGradient>
    <linearGradient id="g">
      <stop offset="0" stop-color="#a5a5a5"/>
      <stop offset="1"/>
    </linearGradient>
    <linearGradient id="K" x1="346.2" x2="359.5" y1="537.4" y2="537.4" gradientTransform="matrix(.33913 0 0 .33913 588 -134.5)" gradientUnits="userSpaceOnUse" xlink:href="#a"/>
    <linearGradient id="a">
      <stop offset="0" stop-color="#ffb142"/>
      <stop offset="1" stop-color="#c87600"/>
    </linearGradient>
    <filter id="w" width="1.2" height="1.3" x="-.1" y="-.2" color-interpolation-filters="sRGB">
      <feGaussianBlur stdDeviation=".2"/>
    </filter>
    <filter id="v" width="1.2" height="1.3" x="-.1" y="-.2" color-interpolation-filters="sRGB">
      <feGaussianBlur stdDeviation=".2"/>
    </filter>
    <filter id="q" width="1.2" height="1.4" x="-.1" y="-.2" color-interpolation-filters="sRGB">
      <feGaussianBlur stdDeviation=".2"/>
    </filter>
    <filter id="p" width="1.2" height="1.4" x="-.1" y="-.2" color-interpolation-filters="sRGB">
      <feGaussianBlur stdDeviation=".2"/>
    </filter>
    <filter id="s" width="1.2" height="1.4" x="-.1" y="-.2" color-interpolation-filters="sRGB">
      <feGaussianBlur stdDeviation=".2"/>
    </filter>
    <filter id="r" width="1.2" height="1.4" x="-.1" y="-.2" color-interpolation-filters="sRGB">
      <feGaussianBlur stdDeviation=".2"/>
    </filter>
    <filter id="y" width="1.2" height="1.5" x="-.1" y="-.2" color-interpolation-filters="sRGB">
      <feGaussianBlur stdDeviation=".2"/>
    </filter>
    <filter id="x" width="1.2" height="1.5" x="-.1" y="-.2" color-interpolation-filters="sRGB">
      <feGaussianBlur stdDeviation=".2"/>
    </filter>
    <filter id="u" width="1.2" height="1.4" x="-.1" y="-.2" color-interpolation-filters="sRGB">
      <feGaussianBlur stdDeviation=".2"/>
    </filter>
    <filter id="t" width="1.2" height="1.4" x="-.1" y="-.2" color-interpolation-filters="sRGB">
      <feGaussianBlur stdDeviation=".2"/>
    </filter>
    <filter id="J" color-interpolation-filters="sRGB">
      <feGaussianBlur stdDeviation=".2"/>
    </filter>
    <filter id="I" color-interpolation-filters="sRGB">
      <feGaussianBlur stdDeviation=".2"/>
    </filter>
    <filter id="H" color-interpolation-filters="sRGB">
      <feGaussianBlur stdDeviation=".2"/>
    </filter>
    <filter id="G" color-interpolation-filters="sRGB">
      <feGaussianBlur stdDeviation=".2"/>
    </filter>
    <filter id="F" color-interpolation-filters="sRGB">
      <feGaussianBlur stdDeviation=".2"/>
    </filter>
    <filter id="E" color-interpolation-filters="sRGB">
      <feGaussianBlur stdDeviation=".2"/>
    </filter>
    <filter id="D" color-interpolation-filters="sRGB">
      <feGaussianBlur stdDeviation=".2"/>
    </filter>
    <linearGradient id="n" x1="198.3" x2="213.1" y1="286" y2="281.9" gradientTransform="scale(1.06667)" gradientUnits="userSpaceOnUse" xlink:href="#b"/>
    <linearGradient id="o" x1="191" x2="204.4" y1="287.3" y2="285.8" gradientTransform="scale(1.06667)" gradientUnits="userSpaceOnUse" xlink:href="#c"/>
    <radialGradient id="z" cx="195.1" cy="286.3" r="9" fx="195.1" fy="286.3" gradientTransform="matrix(.4973 .00647 -.02141 1.64636 118 -169.8)" gradientUnits="userSpaceOnUse" xlink:href="#c"/>
    <radialGradient id="A" cx="218.8" cy="263.2" r="2.7" fx="218.8" fy="263.2" gradientTransform="matrix(1.51111 0 0 .76444 -114.6 74.5)" gradientUnits="userSpaceOnUse" xlink:href="#d"/>
    <radialGradient id="B" cx="192" cy="222.4" r="24.6" fx="192" fy="222.4" gradientTransform="matrix(.58015 -.07884 .57168 4.20659 -32.8 -680.7)" gradientUnits="userSpaceOnUse" xlink:href="#e"/>
    <radialGradient id="C" cx="223.8" cy="222.7" r="24.6" fx="223.8" fy="222.7" gradientTransform="matrix(.56531 .15235 -1.11421 4.13434 346 -716.4)" gradientUnits="userSpaceOnUse" xlink:href="#f"/>
    <radialGradient id="L" cx="347.7" cy="652.3" r="59.3" fx="347.7" fy="652.3" gradientTransform="matrix(0 -.77383 -.68734 0 839.4 501.4)" gradientUnits="userSpaceOnUse" xlink:href="#g"/>
    <radialGradient id="k" cx="489" cy="582.8" r="167.6" fx="489" fy="582.8" gradientTransform="matrix(0 -.50185 .4495 0 85.2 460.3)" gradientUnits="userSpaceOnUse" xlink:href="#g"/>
    <radialGradient id="j" cx="414.7" cy="-8.9" r="123.5" fx="414.7" fy="-8.9" gradientTransform="matrix(0 .30324 -.6606 0 356 155)" gradientUnits="userSpaceOnUse" xlink:href="#h"/>
    <radialGradient id="l" cx="355.1" cy="615.6" r="59.3" fx="355.1" fy="615.6" gradientTransform="matrix(0 -.77383 .68734 0 217 362.3)" gradientUnits="userSpaceOnUse" xlink:href="#g"/>
    <linearGradient id="m" x1="196.9" x2="197.2" y1="326.5" y2="321.1" gradientTransform="scale(1.06667)" gradientUnits="userSpaceOnUse" xlink:href="#i"/>
  </defs>
  <metadata>
    <rdf:RDF>
      <cc:Work>
        <dc:format>
          image/svg+xml
        </dc:format>
        <dc:type rdf:resource="http://purl.org/dc/dcmitype/StillImage"/>
        <cc:license rdf:resource="http://creativecommons.org/publicdomain/zero/1.0/"/>
        <dc:publisher>
          <cc:Agent rdf:about="http://openclipart.org/">
            <dc:title>
              Openclipart
            </dc:title>
          </cc:Agent>
        </dc:publisher>
        <dc:title/>
        <dc:date>
          2013-11-27T19:14:15
        </dc:date>
        <dc:description>
          A carrot a day... keeps the penguins alive!
        </dc:description>
        <dc:source>
          http://openclipart.org/detail/189178/veggie-penguin-by-moini-189178
        </dc:source>
        <dc:creator>
          <cc:Agent>
            <dc:title>
              Moini
            </dc:title>
          </cc:Agent>
        </dc:creator>
        <dc:subject>
          <rdf:Bag>
            <rdf:li>
              carrot
            </rdf:li>
            <rdf:li>
              food
            </rdf:li>
            <rdf:li>
              penguin
            </rdf:li>
            <rdf:li>
              Tux
            </rdf:li>
            <rdf:li>
              bird
            </rdf:li>
            <rdf:li>
              animal
            </rdf:li>
            <rdf:li>
              cartoon
            </rdf:li>
            <rdf:li>
              veggie
            </rdf:li>
            <rdf:li>
              vegetarian
            </rdf:li>
            <rdf:li>
              eat
            </rdf:li>
            <rdf:li>
              barbecue
            </rdf:li>
            <rdf:li>
              BBQ
            </rdf:li>
            <rdf:li>
              cook
            </rdf:li>
            <rdf:li>
              chef
            </rdf:li>
            <rdf:li>
              cooking
            </rdf:li>
            <rdf:li>
              dinner
            </rdf:li>
            <rdf:li>
              vegetable
            </rdf:li>
          </rdf:Bag>
        </dc:subject>
      </cc:Work>
      <cc:License rdf:about="http://creativecommons.org/licenses/publicdomain/">
        <cc:permits rdf:resource="http://creativecommons.org/ns#Reproduction"/>
        <cc:permits rdf:resource="http://creativecommons.org/ns#Distribution"/>
        <cc:permits rdf:resource="http://creativecommons.org/ns#DerivativeWorks"/>
      </cc:License>
    </rdf:RDF>
  </metadata>
  <path fill="url(#j)" fill-rule="evenodd" stroke="#000" stroke-width="1.7" d="M350 348.8c-16.3 1.7-35 14.9-27.6 17.8 7.5 2.8 29 4 33.1.7 2.1-1.7 5.9-6 6.3-10.1.4 4 4.2 8.4 6.3 10 4 3.4 25.6 2.2 33-.6 7.5-3-11.2-16.1-27.5-17.8-8.4.8-11.4 3.6-11.8 6.9-.4-3.3-3.4-6-11.8-6.9z" transform="matrix(1.01365 0 0 1.01365 -274.3 -195.2)"/>
  <path fill-opacity=".3" fill-rule="evenodd" d="M80.5 158.4c-8.1.8-16.8 4.4-22.7 8.3a80.4 80.4 0 0 0 31.5 7c1.5-2 2.9-4.5 3.1-6.9.3 2.4 1.6 4.8 3 6.8a79.2 79.2 0 0 0 31-7.4c-5.9-3.6-14.2-7-22-7.8-8.5.8-11.6 3.6-12 7-.4-3.4-3.4-6.2-12-7z"/>
  <path fill="url(#k)" stroke="#000" stroke-linecap="round" stroke-width="1.7" d="M417.1 301.6a56.1 56.1 0 0 1-112.3 0 56.1 56.1 0 1 1 112.3 0z" transform="matrix(1.01365 0 0 1.01365 -274.3 -195.2)"/>
  <path fill="#fff" stroke="#000" stroke-linecap="round" stroke-width="1.7232049999999999" d="M119.7 139a27.6 27.6 0 1 1-55.2 0 27.6 27.6 0 1 1 55.2 0z"/>
  <path fill-opacity=".3" d="M146.3 94.7l.2 4.5A57 57 0 0 1 34.9 115a57 57 0 1 0 111.4-20.3z"/>
  <path fill-opacity=".3" fill-rule="evenodd" d="M92 101c-5 0-10.4 4.6-10.2 7.4.2 2.9 8.9 14.8 10.8 14.8 2 0 9.5-11.7 9.3-15-.2-3.3-6.7-7.4-10-7.2z"/>
  <g stroke="#000" stroke-linecap="round" stroke-width="1.7">
    <path fill="#fff" stroke-width="1.7232049999999999" d="M80 72.7c-8 0-14.4 7.3-14.4 16.4 0 9.1 6.4 16.5 14.3 16.5 4.6 0 8.8-2.6 11.4-6.5 2.6 4 6.7 6.5 11.3 6.5 8 0 14.3-7.4 14.3-16.5 0-9-6.4-16.4-14.3-16.4-4.6 0-8.7 2.5-11.3 6.5-2.6-4-6.8-6.5-11.4-6.5z"/>
    <path stroke-width="1.7232049999999999" d="M88.8 92a3.6 3.6 0 1 1-7.2 0 3.6 3.6 0 1 1 7.2 0zM101.6 92a3.6 3.6 0 1 1-7.2 0 3.6 3.6 0 1 1 7.2 0z"/>
  </g>
  <path fill-opacity=".3" d="M72.5 159.5c-1.9 0-3.5 1.8-4.2 4.4a84 84 0 0 0 20 2.8c0-4-2-7.2-4.6-7.2-1 0-2 .6-2.8 1.6-.8-1-1.8-1.6-2.9-1.6-1 0-2 .5-2.7 1.5-.8-1-1.8-1.5-2.8-1.5zm25 0c-2.4 0-4.4 3.2-4.5 7.1a83 83 0 0 0 20-3c-.8-2.4-2.4-4.1-4.2-4.1-1 0-2 .6-2.8 1.6-.8-1-1.8-1.6-2.9-1.6-1 0-2 .5-2.7 1.5-.8-1-1.8-1.5-2.8-1.5z"/>
  <path fill="#fff" stroke="#000" stroke-linecap="round" stroke-linejoin="round" stroke-width="1.62184" d="M116.7 136.6c-8.6-1.6-.7 7-2 10.2-5.3-2.6-3.3 5.9-5.7 8.3-4.4-.3-5.1 4.2-8.3 5.6-3.8-2.1-6.5 2-10.1 2-3.7 0-5.8-4-10.2-2-3.1-1.4-3.8-5.7-8.3-5.6-2.4-2.4-2-11.4-5.6-8.3-1.4-3.2 4.7-12.5-2-10.2 0-3.6 7.2-10.3 2-10.2 1.3-3.1 8-5.5 5.6-8.3a26 26 0 0 1 37 0c-3.6 1.7 4.2 5.2 5.5 8.3-5.8-.3 2.1 6.6 2.1 10.2z"/>
  <path fill="#477d42" stroke="#000" stroke-linecap="round" stroke-linejoin="round" stroke-width="1.62184" d="M40.1 88.5C41 86 42 83.8 43.2 81l12.9 25.6c2 3.5 2.5 3.2 6 4.4 17.5 5 34.5 10 61.9-1.6a56 56 0 0 1 16.7-27c1.2 2.3 2 5 2.3 6.2-5 6-10 10.3-13.6 25.5 2 8.8 3.3 25-4.8 44.5a69.2 69.2 0 0 1-67.1-.4c-4.8-13-8.9-34.3-7.8-47.8z"/>
  <g fill-rule="evenodd" stroke="#000" stroke-width="1.7">
    <path fill="#fff" stroke-width="1.7232049999999999" d="M44.2 97.8c16.5 6-4.9 32.4 13 55.4 3.3 4.3-20 .8-28.1-22.9-8-23-.4-37 15-32.5z"/>
    <path fill="url(#l)" d="M650.4 150c16.3 6-14.5 34.7 12.8 54.7 7.7 5.7-19.6.8-27.7-22.5-7.9-22.7-.4-36.5 14.9-32.1z" transform="matrix(1.01365 0 0 1.01365 -614.5 -54)"/>
  </g>
  <path fill="#ececec" stroke="#000" stroke-linecap="round" stroke-linejoin="round" stroke-width="1.7232049999999999" d="M58.2 120.5c20 5.4 43 7 63.5-.2 1.9 11.1-4.5 31.8-6.4 36a71.7 71.7 0 0 1-50.5.5c-3.2-11.2-8.8-25-6.6-36.3z"/>
  <path fill-opacity=".3" d="M61 65.1l-.6 1.1a15.3 15.3 0 0 1-.5 3.2c-.2.9-.5 1.6-.8 2.3l-.3 1c-.3 1-.5 2.2-.2 3.8-.4-1.4-1-.3-1.6-.6-.9-.2.6 2 1.2 2.2.1.3.2.5.1.7-.6-.5-1.1-1-1.3-.6 0-.1.6.6.6 1h-.4l.3.2-.5-.1c-.7-.2 1.3 1 .9 1.8-.1-.4-.3-.6-.4-.3l-.1.5v.7c0 .3-.2.6-.4.8-.1-.2-.2-.5-.1-1 .7-.4.5-1 .2-1.5l-.6-1c-.2-.3-.3-.6-.3-1 0-2.7 0 2-1.1.6-1-1.9.5 1.6-.5 1.6-.5-.2 1.9 1 .9 1.3v.6c0 1.9-.3-.8-1-.5V82.8l-.1.2c-.1.1-.2.2-.5.2l.5.2c.4.4 1 1 1.3 1.7l-.1.5c-.3 0-.6-.3-.9-.6l.4-.5c-.9.3-.6-1-.7-1-.3-.1-.5.2-.6.6-.2-.3 0 0-.3-.2l-.4-.9.8-1c-1 .2-.3-3.4-.8-1.4l-.2.3h-.4l-.4-1.4c.4 2-.3-1-.1-.2v.8c-.3-.7-.4-1.3-.1.2v.3l-.2 1c-.5-.2-.7-1 0-1 0-.2-.7-.1-1 .2l-.6-.6c.6-.7 1.2-2.4.4-2.1l-.4.1h-.4c-.3 0-.6 0-.6.8-.3-1.6-1.2-3.3.2-3.9 1-1-.1-2.8.8-3.8-2-.5-.5 4.3-2.1 3.4v-1.2c0-.6 0-1.3.2-1.8.2-.6.4-1 .7-1-.7-.6-1.2.8-1.2 1.2-.3-.9.3-3.3-.3-1.6-.7 1.7-.9-1.7-1-1-.1 1-.6 1.3-1 .8l-.1-.3-.2-.5-.9-1c.4.6.6 1.6 0 1.5l-.3-.2c.7.3 2 2.1 1.4 2.6l-.2-.3c-.6-.6-1.8-.7-1.8-.4 1.3 0 1 1.5 0 1.7 1.5.2 3 1.3 3.9 2.8.4.5 1.2 4.3-.5 3.2V79c-.2-.8.7-1.8-.5-2.1-.8-.2-1.7-3.5-1.2-1.4.4 1-.3 1.7-1 1 1 .7.4 2.1.6 1.9.6-.4 1.5 1 1.3 1 0 .3.6 1.9-.2.6-.4-.7-1.4-.2-.5.2l-.2.8v.1c0 .1.2.2.6.2 1.2.1 2 2.7 1.7 3.4-.6-.5-1.7-2.9-1.8-3 .2.8 0 1-.3.7l-.4-.3-1.5-1.7c-.6-.6-2.4-3.3-1.2-1.1.4.7 1.2 2.3-.1 1.5-.8 0-2.4-1.6-2.5-.8 0-.1 1.7 1.6.2 1.1-.9 0 2.1.9 1.1 2.1l.8-.5 1-.4h.3c.8-.2 2.5.3.9.4-.8.1-2.5.7-2.3 1.2 1 .1-.8 2-.2 2l.3-.4c.6-.7.9.3.4 1.2.2 0 1.3-2.6 1.6-1.5l.3-.6.4-.7c.2-.1.5 0 .9.3.5 0 1 .3 1.3.6l.5.4.4.5c-.1.4-.3.9-.7.4l-.2.6-.3-1v.2s-.7-.1-.4-.7c-.6.6-.1 1.3 0 1.4l-.7.1c-.3.4-.6 1.6-.5 1.5l.3-.6c.7-2 2 1.7.4 1.4-.7.2-2.5-1.3-1 .1v.2c0 .2-.1.3-.3.4-.6.1-2-.6-.8 0 1 0 .9 2.1 1.4 1 .6-1 2.4.6 1.3 1.3.7-.2 1.5.2.5.9-.1.2-.1.3 0 .2l.8-.3c.6-.2 1.2-.4 1 .2.6-.2 1-.6 1 .1a1 1 0 0 0 0 1c.1 1 .4 2 1 2.5-.8-.1-2.5-.2-2.7.2.4.4 1 .7 1 .9h-.1H47.1l.5.2c.7.1.3 1.1.4 1.2l.3-.3c1.4-1.5 2 2.2 3.3 2.7 1.4.8 1.4 2.9 2 4.5.5.9.7 3 1.3 3.2.6 2 1.3 4.5 2.7 6.5l.3.4c-2.2-.1-5.3 2.5-5.2 5.1 0 1.6-.4 3.3-.5 4.9l-1 .3c0 1.4 1 2.8 1.2 4.2.1 3.2-1.6 6.1-1.7 9.3 0 1.5 1.5 3.3.5 4.4-3 3.4-1.3 7.6 2 11 5 2.7 30.6 20 70.4 4.2 0-1 7.7-4.7 8.5-9.1l-2.6-11c3.7-12.1 2.4-30.3 3.2-34.3-1.5 1-1.6-.1-4.5 5.7-3.3 8 4 20.3-1.3 29l-9.4-1.9-7-1c-1.6-.4-1.7.3-1.9 1.2l-34.1-4.4c-.2-3.2-3.3-6.4-7.5-6.6l.5-1.9.1-.5h-.3c.4-.9.6-1.8.6-2.6-.2-1.9-1-4-2.8-5.1l-1.5-.7c2-2.4 2.5-5.9 3-8.4.6-.2.3-1.4.2-2.5 0-.1 0-.2.2-.3l.6-1c.5-1.1 1-2.2 2-2.5h.2c2.7-3.8 1-1.3 3.6-6.5 0-1.2-.7-2-.3-1.5l.1-.3c2.3-2.7.7-7.2-.4-10.6 0-1.7-.1.8-.7 1.1v-.4l.2-1.4c0-.3-.2.1-.2.5l-.8 2.4-.3-.3-.3-.4v-.3l.2-.2c0-.2-.4-.3-.9-.4l.1-.6 1.3.3a.8.8 0 0 1-.3-.3v-.2c0-.7 1.7-1.5 1-1.4l-.4.1h-.3c-.2-.2.6-1.2.7-1-.3-.7-1.7.9-2.4 1l-.1.2c0-.3 0-.4-.2 0-.4.2-.4 0-.4-.3l.1-.6.2-.5c.7-2-.4.3-.9 1-.1-.7-.1-1.4-.1 0v.1l-.2-.3v.9c-.2.1-.2.2-.3.4h-.1c-.4-.7-.4-.6-.3-.3l-.5.1-.1-.5c0-.3.3-.4.9.2.2 0 0-.2-.1-.5l-.3-.3-.3-.4c.6-.7 1-1.8.5-1.7-.9-1 1.6-2.2.8-2l-.5.1h-.1v-.2-.3l.5-.8c-.2-.6-1.2.6-2 1l-.2.2c.1-.4.4-.8 1-.9 1-.8.3-2.6 1.3-3.4-1.3-.7-1.3 2.2-1.9 2.8a1 1 0 0 1-.3-.2 1 1 0 0 1-.2-.4V74l.6-.2H66l.3-.9c.3-.7.6-1.4 1.1-1.4-.3-.3-.6-.2-.9 0-.3.3-.5.8-.5 1V72l.1-.4c.2-.9.7-1.8 0-.7-.4.5-.5.4-.6.1v-.4c0-.5 0-1.1-.1-.8-.4 1-1.2 1-1.2-.3l-.7-1.3c.3.6.4 1.7-.1 1.6-.1 0-.2 0-.3-.2.6.6 1.3 2.3.7 2.6l-.2-.3c-.4-.6-1.5-1-1.5-.7l.3.1.3.2c.3.5-.2 1.3-.8 1.3l.8.4c-.3.2-.7 0-.8-.4v-.6-.7l-.4 1.2c0 .5-.3 1-.5 1l-.4.3c-.2.2-.1.5 0 .8-.2-.1-.5-.1-.8 0 .6.4.7 1 .8 1.7-1 .6-1-2.8-.8-3.4a6 6 0 0 1 3.1-3.4c-.9 0-1.5-1.5-.2-1.7 0-.3-1.6.1-1.9 1-.7-.3.2-2.3.8-2.7-.8.7-.9-.4-.6-1.2zm1.9 4.6h.2l.3-.2-.3.1h-.2zm-19.5 3.5h-.5.5zm19.4.1h.1c0 .3 0 .6-.2.6v-.6zm-.7 2.1l.2.8-.4-.3.3.6-.1.2-.1.3c0-.2 0-.5-.2-.7v-.2-.2c0-.2.2-.3.3-.5zm.2 3l.2.6c-.4-.2-.8.1-.2.5l-.4.8v.1h-.3l.1-1.2.6-.8zm2.6 0v.3l-.3.1-.2.2c-1 .1-.3-.4.5-.5zm-6 2.6c0 .2 0 .3-.2.4V81h.2zm-7.3.7zm15.8 0v.8c-.5.7-1 1.1-.9 0l-.4 1.4c-.3 0-.4-.2-.4-.4s.3-.6.6-1l.6-.3.4.3-.3-.4.4-.3zm2 .8h.4v.4h-.1-.1l-.2-.4zm-19.2.6h.7c0 .3-.2.6-.4.7-.2 0-.3.1-.3.2v.2c.2.4 0 .7-.3 1V85c0-.4.2-.9.3-1v-.3c-.4 0-.4-.4-.3-.7h.3zm1 0l.1.1c0 .2.2.3.3.5h.1l.3.1.1.8-.5-.2v-.7h-.3v-.2-.3zm-3.8.5l.1.3s-.2-.2 0-.3zm18.5.6l-.2.5-.2.2.4-.7zm1.7 0h.1c.1.7 0 1-.2 1s-.3-.2-.5-.3v-.2l.3-.2.3-.3zm3 .6l.5.1-.4.8-.2-.5V85l.1-.2zm-.7.4l.4.3c-.3 0-.4-.2-.4-.3zm-3.8 0v.4h-.2l.2-.3zm7.3 1.3l-.6.2v-.2-.2c0-.1 0-.3.2-.5l.4-.1c.7-.8.1.6 0 .8zm-3-1l.1.2h-.2l.4.8-.4.7-.2-.5s0-.2 0 0v-.3.4l-.4.3v-1l.6-.5zm-23 .2h.1v0zm6.5 1h.1l.2.4-.4-.3.1-.2zm15.3 0l-.1.6-.1-.3.2-.3zm-14.2 0v.1zm15 .4l-.2 1 .2-1zm-16.2.1l.6.4h-.5c.2.3.2.6-.2.8v-.8-.4zm17 .2v0zm-2.1.2c.2.2.3.4.3.7a2 2 0 0 1-.6.2l.3-.9zm2.2.6v.3c-.1.5-.3 1-.6 1.4l-.4.5.3-.9.2-.7.4-.3-.3.1c0-.2.2-.3.4-.4zm-2.1 1.4v.5c-.2 0-.3-.1-.3-.4h.1l.2-.1zm-13 2.9l.1.3-.3.3.1-.6zm17.5.8h0zm-17.3 0h.2v.2l-.1.3c0-.2-.3-.4 0-.5zm0 .7zm.7 0V94.1zm-1.5 1.2l.4.1-.2.3c0-.2-.4-.3-.2-.4zm2 .6c.4.2.8.5 1 1.2.2 1-.6-.3-.4.6.3 1.6.4 3.2.5 4.8.2 1.2-.7 3.6-.1 4.2 0 2.7.1 6 1.1 8.7l.3.6h-.2a13.7 13.7 0 0 1-3.3-8.4v-.2-.2c-.4-1-1-2-1-2.9a48.5 48.5 0 0 1-.8-5c-.2.1-.3 0-.3-.3.1-2 2.5-1.6 3.1-3zm10.7 1.7l.2.4-.9.4c0-.2.4-.5.7-.8zm-6.2.6l.1.3c.3.8-.5-.2-.3.5l.5 4.1-.3 1.8v1 .6c-.3 1.5-.7 3.4-.8 5.3l-.8 2c-.6-2.3-.9-4.4-.6-6.5.6-.2.3-2.5.6-3.5l.1-1.3v-1.3c0-.8.3-1.6.9-2.1.2-.2.5-.5.6-.9zm-12.6 0c.2.1.3.3 0 .1zm19 .4v.2c-.2.9-.3-.5-.5.3l-.8 2.5c0-.8 0-1.5.2-2.3.7-.2.7-.7 1-.7zm-3.9 2.2c1 1 .5 2.8.8 4.3l-.5.9a221.8 221.8 0 0 0-2 2.8l.8-2 .1-.2c.2-.7 0-1.8.3-2.4.3-1.2 0-2.5.5-3.4zm68.9 3.5c-.2 0-.3.3-.4.8l.7-.5c0-.2-.2-.3-.3-.3zm-68 3.4c0 3-.8 5.3-2.6 8.3a24 24 0 0 1-.5-3.4c.8-2 1.7-3.5 3-4.9zm-4 7.8l.1.5H61l.1-.5zm4.8 15.5c.8.5 1.8 2 1.6 3.3l-.2 1.3c-.2 1-.8 1.8-1.5 2.2V135c0-.8 0-1.6-.2-2.3 0-.6.2-1.1.3-1.7zm7.2 8.6l34.3 6.2c-.1 1.1.5 1.7 1.6 1.9l3.6.6a50.5 50.5 0 0 1-49 .5c.6-2 1.1-3.9 1.5-5.9l.1-.4a8 8 0 0 0 8-3z"/>
  <path fill-opacity=".3" d="M130.2 70.2c-20-23.5-55.2-20.1-81.1 1a87.3 87.3 0 0 1 81.1-1z"/>
  <path fill="#fff" d="M70.7 51l41.9-7.2c4.3 9.1 11.2 17.8 14.7 22.5-22.4-13.5-56.2-10.5-73.3 2.3 1.8-7.4 8-14.2 16.7-17.6z"/>
  <path fill="#dbdbdb" d="M68.7 52.4C68 48 70 44.2 71 48.5c3 5-13.2 12.2 5.2 10.8-.5-.6-3 .4-3 .4.7.2 5.5-.7 6.5-6 .6-2.8 4.5-2.4 4.9 1 .8 4-4.8 3.8-7 4.2-5.5-.1-19.9 5.2-24.2 9.6.7-5.7 10.5-9.6 9.5-17.6z"/>
  <path fill="none" stroke="#000" stroke-linecap="round" stroke-linejoin="round" stroke-width="1.618408" d="M62.9 50.2l52.6-4.3c3.7 7.5 3.8 12.8 15 22.8-8.3-9.2-50.1-19.4-78.7 1 7.6-9 11.8-15.6 11-19.5z"/>
  <path fill="#fff" d="M68.8 16.5C85.1-8.8 127-.7 119 20.2c23.7 5.2 24.7 45.7-16.3 29.4-7 2.4-13.8 4.9-24.3-.1-38 16.6-52.7-38.3-9.5-33z"/>
  <path fill="#dbdbdb" d="M85.6 3.8a35.4 35.4 0 0 0-10.5 12.6c-.6 1.2-.5 1.4-1.9 1.3-1.8 0-3-.5-4-.6C73.9 12.5 76 6.6 85.7 3.8zM38.8 29.9c1-6.4 9.4-14.5 21.2-13.7-26 7-16.3 28.3.4 32.8 6 1.6 13.2.8 19.5-1.3 8.5-2.8 16.5-3.6 3.3 1.3-13.2 5-31.6 7.4-40-2.2-5-3.7-4.9-12-4.4-16.9zM108 48.7c-1.1-2.6 2.1-2.7 4.2-1.7 3.8 2.4 8.2 4.6 19.5 3.8L121 53.2c-11.1-1.6-12.2-3-13-4.5zM99.5 37c-3.3-1.6-2-3.6.5-4.1 9.6-1.3 15.8-4.4 18.7-13.5l.8 1.8c-5 13.6-14.7 17.5-20 15.7z"/>
  <path d="M98.3 0A35 35 0 0 0 69 15.9c-12.3-1.6-20.8 1-25.8 5.5A17.2 17.2 0 0 0 38 38.6 21 21 0 0 0 51 53c5 2 11.5 1.9 18.8 0-.1-1-.4-1.2-.7-1.1a28.7 28.7 0 0 1-17.5 0 19.8 19.8 0 0 1-12.2-13.6 16 16 0 0 1 4.8-16c4.7-4.3 12.8-6.9 25-5.2.4 0 .7 0 .8-.3a33.4 33.4 0 0 1 32.6-15.4 22 22 0 0 1 13.4 6c3 3.2 4.2 7.5 2.5 12.8 0 .3.2.7.6.8a19 19 0 0 1 12.5 8c2.8 4 4 8.9 3.3 13-.7 4.3-3.2 7.8-7.8 9.5-3.4 1.2-8 1.4-14 0-1.7-.6-.6 1 .4 1.3a25.5 25.5 0 0 0 14.2-.2c5-1.8 7.8-5.8 8.6-10.3.7-4.6-.5-9.6-3.5-13.9-2.7-4-7.1-7.3-12.8-8.5 1.6-5.3.3-9.9-2.9-13.3A23.4 23.4 0 0 0 102.8.2L98.3 0z" color="#000" font-family="Sans" font-weight="400" overflow="visible" style="line-height:normal;-inkscape-font-specification:Sans;text-indent:0;text-align:start;text-decoration-line:none;text-transform:none;marker:none"/>
  <g>
    <path fill="none" stroke="#000" stroke-linecap="round" stroke-linejoin="round" stroke-width="2.128665" d="M56.6 63l-.5 1a15.3 15.3 0 0 1-.5 3.2c-.2 1-.5 1.6-.8 2.3l-.3 1c-.4 1-.5 2.2-.2 3.8-.4-1.4-1-.2-1.6-.6-1-.1.5 2 1.2 2.2v.7c-.5-.5-1-1-1.2-.6l.6 1h-.5l.4.3c-.1 0-.3 0-.5-.2-.7-.1 1.2 1 .9 1.8-.2-.3-.3-.5-.4-.2l-.1.4V80l-.4.7c-.1-.1-.2-.4-.2-1 .8-.4.6-.9.3-1.5l-.6-1c-.2-.2-.4-.6-.4-1 0-2.7.1 2-1 .6-1-1.8.5 1.6-.5 1.6-.5-.1 1.8 1 .8 1.3V80.2c0 2-.2-.7-1-.4V80.8l-.5.2c.2 0 .3.2.4.3.5.4 1 1 1.4 1.7l-.2.5-.8-.7.4-.4c-1 .2-.7-1-.8-1.1-.3 0-.4.3-.5.6l-.3-.2-.4-.9.8-1c-1 .3-.3-3.4-.8-1.3l-.2.2h-.2-.3c0-.5-.2-.9-.3-1.3.4 1.9-.3-1-.2-.2v.8c-.2-.7-.4-1.3 0 .1v.4l-.2 1c-.5-.3-.7-1.1 0-1 0-.2-.7-.2-1 .1l-.6-.6c.5-.7 1.1-2.4.4-2.1l-.4.1h-.5c-.3 0-.5 0-.5.8-.3-1.5-1.3-3.3.2-3.8.9-1-.2-2.9.7-3.9-1.8-.5-.4 4.3-2 3.5v-1.2c0-.7 0-1.4.2-1.9.1-.5.4-.9.7-1-.7-.5-1.2.8-1.3 1.2-.2-.9.4-3.2-.2-1.5-.7 1.7-1-1.8-1-1-.2.9-.6 1.2-1 .7l-.2-.3-.1-.4-.9-1c.4.6.6 1.5 0 1.4l-.3-.1c.7.3 2 2 1.3 2.5 0 0 0-.2-.2-.2-.6-.6-1.7-.8-1.8-.5 1.3 0 1 1.6.1 1.7 1.5.3 2.9 1.4 3.9 2.8.3.5 1.2 4.4-.5 3.3l-.1-.4c-.2-.8.8-1.7-.5-2-.7-.3-1.7-3.6-1.1-1.4.3.9-.3 1.6-1 1 1 .6.4 2 .6 1.8.6-.3 1.4 1 1.2 1 .1.3.7 1.9 0 .6-.5-.7-1.5-.1-.6.3l-.2.8c0 .2.2.2.5.2 1.2.2 2 2.8 1.8 3.5-.6-.5-1.7-3-1.8-3 .2.8 0 .9-.3.7l-.4-.4-1.6-1.7c-.5-.6-2.4-3.3-1.1-1 .4.6 1.2 2.2-.1 1.4-.8 0-2.5-1.5-2.5-.8 0-.1 1.7 1.6.1 1.2-.8 0 2.2.8 1.2 2l.8-.4c.3-.2.7-.4 1-.4h.3c.7-.2 2.5.3.8.3-.7.2-2.4.7-2.2 1.3 1 0-.8 1.9-.2 1.9l.3-.4c.6-.6.8.3.3 1.2.3.1 1.4-2.6 1.6-1.4l.4-.7c.1-.3.2-.6.4-.7.2-.1.4 0 .8.3.5 0 1 .3 1.4.7.2 0 .3.2.4.3l.4.5c0 .4-.2 1-.6.4-.1-.1-.2.4-.2.6-.2-.5-.3-1-.4-.9V83.6s-.7 0-.3-.7c-.7.6-.1 1.3 0 1.5h-.7c-.3.5-.7 1.6-.5 1.5l.3-.5c.7-2 2 1.7.4 1.3-.8.2-2.6-1.3-1 .1v.2c0 .2-.1.3-.3.4-.6.2-2-.6-.8 0 1 .1.8 2.2 1.3 1 .7-1 2.4.6 1.4 1.3.7-.2 1.5.2.5 1-.2.2-.1.2 0 .2l.8-.3c.6-.3 1.2-.5 1 .2.6-.3 1-.6 1 0a1 1 0 0 0 0 1c0 1 .4 2 1 2.5-.8 0-2.5-.2-2.7.3l1 .8-.1.1h-.6l-.7-.1.4.2c.8.1.4 1.1.5 1.2l.3-.2c1.4-1.5 1.9 2.1 3.3 2.7 1.4.7 1.4 2.8 2 4.4.5.9.7 3 1.3 3.3.6 2 1.3 4.5 2.7 6.4l.3.4c-2.2 0-5.3 2.5-5.2 5.2 0 2.4-1 4.8-.5 7.1.3 1.2 1.5 2.3 1.7 3.5.5 2.7-1 5.5-.8 8.2.1 1.3.9 2.5 1 3.8.1 2.9-1.6 5.7-1.2 8.5.5 3-.2 8.3 3 9.5-.2.5-.2 1.1 0 1.8 1.6.3-1.1-4.1.8 2.7 0 1.2.5 2.4.5 3.6 0 1.2-.4 1.8-.5 2.9-.2 1-2.9 4.1-3 4.4.7-.7 3-3 3.3-4.3.3-1.4.2-2.5.2-4 0-1.1-.4-2.2-.3-3.4.6-.4 0-1.2.2-.7.2-1 .5-2 .5-2.8.4 0 .8-.2 1.1-.3l.6-.4c2.5-1.8 2-7 3.2-10a46.8 46.8 0 0 0 3.3-16.4c0-2-.8-3.8-.6-5.7l.2-1c.7-2 2.6-4 2.4-6.2-.1-1.8-.9-4-2.8-5.1l-1.4-.7c2-2.4 2.5-5.8 3-8.3.6-.3.3-1.5.1-2.6l.2-.3c.3-.3.5-.7.6-1 .6-1.1 1-2.2 2-2.5h.3c1.2-.5 2.4-3.1 3.2-1.5.2.5.2.3.2 0v-.3c.1-.2.2-.5.6-.4h.4c.2-.1-.1-.1-.6-.2-.4 0-.5-.1-.5-.2 0-.2.5-.4 1-.6l-.2-.1c-.3-.4-1.4-.6-2-.7.7-.5 1.2-1.5 1.4-2.5.1-1.2-.6-1.9-.2-1.5v-.2h.1c.2-.3.7 0 1-.1v-.1l.1-.3c-3.3-.8 4 .1 4.9.3 1.5-.3-1 .2-.9-.6l.2-.2c1.5-1-.3 0-1-.4H73c-1-.5.8-3 1-1.1.2 1.5.1-.2 0-.8-.8-.7-2.3 0-3-.6 1.1-.8 2.2-2 3.4-1.8h.2c.6-.6-1.3-1.6 1.3-1-.6-.1-.6-1.3-1.2-1.2-.2 0-1.6 2-2.2 2.2 0-.3.2-1 .7-1.6l.3-.4c.4-.4.8-.7 1.2-.6h.5v-.1c0-.2-.1-.4 0-.8.9-.1 0-.8-.4-.3l-.4.3v-.2l.4-.7V81l.4-.3c.3-.2.7-.4 1-.2 0 .3-.1-1.2.8-1.5-.3.2-.6.1-.8 0v-.3c0-.2 0-.5.2-.8 1-1.7-.6 1-1.3 1-1.2 0-.3 1.4-1 2h-.3c-1.2.1.2-2.7.6-3 1.1-1.1 2.6-1.7 3.8-1.6L78 76c-.4-.5-.2-1.6.7-1.3 0-.3-1.3-.5-1.8.2l-1.9 1c.4-.3.8-.7 1-1.1l.1-.5c.2-.6 0-1.1-.7-1.6v-.5c-.1.2-.3 2.1-.6 2.6.1 0-2-1.7-3-1.4.7.4 2.2 1.5 2.2 2.6v.5a1.2 1.2 0 0 1-.9-.2c-.7-.5-1-1.8-2.3-1.8.5 1 1.2 1 1.8 1.6l.2.4.3.3.1.3c.1.5 0 1-.3 1.4l-.7 1.5-.1-.8-.2-.1c-.2 0-.6 0-.7-.3-.3-.2-.4 0-.4.4a3.6 3.6 0 0 0 .3 1.7l.2.2c-.1.8-.6 1-1 .6.4-.6.8-1-.2-.4l-.1-.2c-.2-.5.9-1.5 0-1l-.3.4-.2.1v-.2c1.1-2.3-.6 1.6-1 0 0-1.7-.2.9-.7 1.1v-.4l.1-1.3c0-.4 0 0-.2.4l-.7 2.5-.3-.4-.3-.3v-.3c0-.1 0-.2.2-.2 0-.3-.4-.4-.9-.5v-.6l1.4.4a.8.8 0 0 1-.3-.4v-.1c0-.8 1.6-1.6 1-1.5l-.4.2H67c-.2-.3.6-1.2.6-1.1-.2-.6-1.6.9-2.3 1l-.2.2c0-.2 0-.3-.2.1-.3.2-.4 0-.3-.4l.1-.5.2-.6c.7-2-.5.4-.9 1-.2-.6-.1-1.3-.2.1l-.2-.2v.8c0 .2-.2.3-.3.4-.4-.6-.4-.6-.4-.2h-.4l-.1-.4c0-.4.3-.5.8.1.2 0 .2-.2 0-.4l-.4-.4-.2-.4c.5-.6 1-1.7.4-1.6-.8-1 1.7-2.3.9-2.1-.3.1-.5.2-.6.1l-.1-.2V74l.6-.8c-.2-.6-1.2.6-2 1.1l-.2.2c.1-.5.4-.9 1-1 1-.7.3-2.6 1.3-3.4-1.3-.6-1.3 2.2-2 2.9a1 1 0 0 1-.2-.3 1 1 0 0 1-.3-.3l.1-.5.6-.3h-.5c0-.3.2-.6.3-.8.3-.8.6-1.4 1.1-1.5-.3-.3-.6-.2-1 .1l-.4.9v-.4-.5c.3-.8.7-1.8 0-.7-.3.5-.5.5-.5.1v-.3c0-.6 0-1.2-.1-.8-.5 1-1.2 1-1.2-.3L59 66c.4.5.4 1.6 0 1.5l-.3-.1c.6.5 1.3 2.3.7 2.6 0-.2-.1-.3-.2-.3-.4-.7-1.5-1-1.5-.8l.3.1.2.2c.3.5-.2 1.3-.7 1.3l.8.5c-.4.2-.7 0-.8-.5V70v-.7l-.4 1.2c-.1.5-.3 1-.6 1l-.3.3c-.2.3-.1.6 0 .9-.2-.2-.5-.2-.8 0 .6.3.7 1 .8 1.6-1 .6-1-2.8-.8-3.3a6 6 0 0 1 3-3.5c-.8 0-1.4-1.4-.1-1.7-.1-.3-1.6.2-1.9 1-.7-.2.2-2.2.8-2.7-.8.8-1-.4-.7-1.1zm2 4.5h.2l.2-.1h-.3l-.1.1zM39 71h-.4.4zm19.4.1l.2.1c0 .3 0 .5-.3.5l.1-.6zm-.7 2.2l.3.7c-.2 0-.3 0-.5-.3l.4.7-.1.1-.2.4-.1-.7v-.3-.2l.2-.4zm.3 3l.1.6c-.3-.2-.8 0-.2.5 0 .4-.3.6-.3.7v.2h-.3V77l.7-.7zm2.5 0v.2l-.3.1-.1.2c-1 .1-.3-.3.4-.5zm16.7 2.4l-.1.1v-.1zm-22.6.1c0 .2 0 .3-.2.4V79h.2zm-7.3.7zm15.7.1l.1.7c-.5.7-1 1.1-1 0 0 .1-.1.8-.4 1.4-.2 0-.3-.2-.3-.3 0-.3.3-.7.6-1l.5-.4.4.3-.3-.4.4-.3zm2 .8h.5l-.1.3h-.1l-.2-.3zm-19.1.5h.7c-.1.4-.2.7-.4.7s-.3.1-.3.2v.2c.2.4 0 .7-.3 1l-.1-.1c0-.4.3-.8.4-1 0-.2 0-.3-.1-.2-.4-.1-.4-.4-.3-.8h.4zm1 .1l.4.5.4.2.1.8-.5-.2c-.1-.2-.2-.6 0-.8H47v-.2L47 81zm-3.8.5c.3.5-.2.2 0 0zm27.1.4c.3.7 1 2.1.1 2.1-.1 0 .1 1 0 1.6a3 3 0 0 1-.5-.3 1 1 0 0 1-.2-.3l.2-1.7c.5 0 .9.3.2-.3-.1-.4 0-.7.2-1zm-8.6.1l-.2.6-.2.1.4-.7zm1.7 0l.1.1c0 .6 0 1-.2 1-.2-.1-.3-.3-.5-.3v-.3l.3-.2.3-.3zm3 .7h.5c0 .2-.2.7-.4.8l-.2-.5v-.2l.1-.1zm-.7.3l.4.4c-.3 0-.4-.2-.4-.4zm-3.8.1l-.1.3h-.2l.3-.3zm7.6.2v.1c0 .5-.1.8-.3 1l-.6.1v-.2-.1c0-.2 0-.4.2-.6l.4-.1.3-.2zm-3.4.1l.2.1H66l.3.8c0 .3-.2.5-.4.8l-.1-.6s0-.2 0 0v-.2l-.1.3-.3.4v-1l.5-.5.1-.1zm-22.9.1l.1.1-.1.2v-.2-.1zm6.5 1h.1l.2.4-.4-.2v-.3zm15.3 0l-.1.6-.1-.2.2-.4zm7.7 0c.1.2-.4.4 0 0zm-22 0h.1v.1zm15 .4c0 .3 0 .7-.2 1.1l.3-1zm-16.1.2l.5.3h-.4c.2.3.1.6-.2.9v-1-.2zm17 .2v0zm-2.1.2l.3.6a2 2 0 0 1-.6.2c0-.3.1-.5.3-.8zm2.1.5v.3c0 .6-.2 1.1-.5 1.5l-.4.4.2-.8.3-.8.4-.3-.4.1.4-.4zm-2 1.4v.5c-.2 0-.3 0-.4-.4h.4zm-13 3v.2c0 .1 0 .2-.2.3l.1-.6zM69 91l.2.1-.2-.1zm-17.3 0l.2.1v.2l-.2.2c0-.2-.2-.4 0-.4zm0 .7zm.7 0V92zM50.9 93l.4.2-.2.3c-.1-.2-.5-.4-.2-.5zm1.9.7c.5.2.8.5 1 1.1.3 1-.5-.2-.3.7l.5 4.8c.2 1.1-.8 3.5-.1 4.2 0 2.6 0 5.9 1 8.7l.3.5h-.1a13.7 13.7 0 0 1-3.3-8.4v-.2-.1c-.4-1-1-2.1-1-3a48.5 48.5 0 0 1-.8-5l-.1.1c-.1 0-.2 0-.2-.4.1-1.9 2.5-1.5 3.1-3zm10.8 1.6l.1.4-.8.4c0-.2.3-.5.7-.8zm-6.2.6v.3c.3.8-.5-.2-.2.5.2 1.4.4 2.8.4 4.1.1.5 0 1.2-.2 1.9l-.1 1v.6c-.2 1.5-.6 3.3-.7 5.3l-.8 2c-.7-2.4-.9-4.4-.7-6.6.7-.1.4-2.4.7-3.4v-1.3l.1-1.4c0-.8.2-1.6.8-2l.7-1zm-12.6.1c.2 0 .3.2-.1 0h.1zm19 .3v.2c-.2.9-.3-.4-.5.4l-.8 2.4c0-.7 0-1.5.2-2.2.6-.3.7-.7 1-.8zm4.3.8c-.3 0-.2 0 0 0zm-8.2 1.4c.9 1 .5 2.8.8 4.3l-.5 1a221.8 221.8 0 0 0-2 2.8l.8-2v-.3c.2-.6.2-1.8.4-2.3.2-1.2 0-2.6.5-3.5zm.8 7c.1 3-.7 5.3-2.6 8.3a24 24 0 0 1-.4-3.5c.7-2 1.7-3.5 3-4.8zm-4 7.7l.2.5h-.3l.2-.5z"/>
    <path fill="none" stroke="#000" stroke-linecap="round" stroke-linejoin="round" stroke-width="1.1" d="M210.6 344.2c.2 1.1-.1 2.9 1.3 4.7 1.2 2.5.5 5-.3 7M209.1 344.4c-1.8 4.8-1.6 4.2-1.7 5.5" transform="matrix(.89955 -.0338 .02984 .6646 -146.7 -60.6)"/>
    <path fill="url(#m)" d="M210.2 339.9c-2.9 1.4-.4 6.7-.6 9 0 1.9.4 3.9.3 5.7 0 1.7 0 4-1 5.7-.3 1.7-4.6 5.5-3 4.8.9-1.1 3.7-4 4-5.8.4-2.1.3-4.3.3-6.5 0-1.7 0-3.2.2-5 1-3.7 1.1-5 .3-6.7-.2-.5-.1-1-.5-1.2z" transform="matrix(.89955 -.0338 .02984 .6646 -146.7 -60.6)"/>
    <g>
      <path fill="url(#n)" stroke="#000" stroke-width="1.7" d="M207.5 280.8c0 3.6-1.2 7.2-.8 10.7.2 1.9 1.5 3.5 1.7 5.3.4 4.1-1.3 8.2-1.3 12.3 0 2 .8 3.9.9 5.8 0 4.3-2 8.4-1.7 12.7.4 5.1-1 14.4 4.1 14.8 5.6.3 4.8-10.3 6.6-15.6a89.1 89.1 0 0 0 4.5-24.6c0-2.9-.8-5.8-.4-8.6.4-3.7 3.4-7 3.3-10.7-.1-2.8-.8-6-3-7.8-2.4-2.3-4.5-1.7-7.9-1.7-2.4-.3-5.9 3.4-6 7.4z" transform="matrix(.89955 -.0338 .02984 .6646 -146.7 -60.6)"/>
      <path fill="url(#o)" stroke="#000" stroke-width="1.1" d="M207.5 280.8c0 3.6-1.2 7.2-.8 10.7.2 1.9 1.5 3.5 1.7 5.3.4 4.1-1.3 8.2-1.3 12.3 0 2 .8 3.9.9 5.8 0 4.3-2 8.4-1.7 12.7.4 5.1-1 14.4 4.1 14.8 5.6.3 4.8-10.3 6.6-15.6a89.1 89.1 0 0 0 4.5-24.6c0-2.9-.8-5.8-.4-8.6.4-3.7 3.4-7 3.3-10.7-.1-2.8-.8-6-3-7.8-2.4-2.3-4.5-1.7-7.9-1.7-2.4-.3-5.9 3.4-6 7.4z" transform="matrix(.89955 -.0338 .02984 .6646 -146.7 -60.6)"/>
      <path fill="#fa8900" d="M200.7 276.9c1.8.2 3-.3 4.8-1-1.2 4.4-3 2-4.8 1z" color="#000" filter="url(#p)" overflow="visible" style="marker:none" transform="matrix(.95952 -.03606 .03183 .70891 -146.7 -60.6)"/>
      <path fill="#ad5725" d="M200.9 277.6c1.8.3 3-.3 4.8-1-1.2 4.4-3 2-4.8 1z" filter="url(#q)" transform="matrix(.95952 -.03606 .03183 .70891 -146.7 -60.6)"/>
      <path fill="#fa8900" d="M196.3 290.2c1 .6 2 1.2 4 1-2.7 2.6-3.1.4-4-1z" color="#000" filter="url(#r)" overflow="visible" style="marker:none" transform="matrix(.95952 -.03606 .03183 .70891 -146.7 -60.6)"/>
      <path fill="#ad5725" d="M196.2 290.7c1 .5 2 1.1 4 1-2.7 2.6-3.1.3-4-1z" filter="url(#s)" transform="matrix(.95952 -.03606 .03183 .70891 -146.7 -60.6)"/>
      <path fill="#fa8900" d="M198.5 307c2.2.8 2.7.7 3.3 0-1.4 3.5-2.3 1.3-3.3 0z" color="#000" filter="url(#t)" overflow="visible" style="marker:none" transform="matrix(.95952 -.03606 .03183 .70891 -146.7 -60.6)"/>
      <path fill="#ad5725" d="M198.6 307.6c2.2.7 2.7.7 3.3 0-1.4 3.4-2.3 1.2-3.3 0z" filter="url(#u)" transform="matrix(.95952 -.03606 .03183 .70891 -146.7 -60.6)"/>
      <path fill="#fa8900" d="M196.6 265.8c1.1 1.4 2.2 1.3 3.3 1.3-2.8 2.8-3.9-.2-3.3-1.3z" filter="url(#v)" transform="matrix(.95952 -.03606 .03183 .70891 -146.7 -60.6)"/>
      <path fill="#ad5725" d="M196.2 266.2c1.3 1.4 2.6 1.3 3.9 1.3-3.3 2.8-4.7-.2-4-1.3z" filter="url(#w)" transform="matrix(.95952 -.03606 .03183 .70891 -146.7 -60.6)"/>
      <path fill="#fa8900" d="M198 299c1.5.5 2.9.6 4 0-2 3.5-3.1.5-4 0z" color="#000" filter="url(#x)" overflow="visible" style="marker:none" transform="matrix(.95952 -.03606 .03183 .70891 -146.7 -60.6)"/>
      <path fill="#ad5725" d="M198 299.5c1.5.5 2.9.5 4 0-2 3.5-3.1.5-4 0z" filter="url(#y)" transform="matrix(.95952 -.03606 .03183 .70891 -146.7 -60.6)"/>
      <path fill="url(#z)" d="M207.5 280.8c0 3.6-1.2 7.2-.8 10.7.2 1.9 1.5 3.5 1.7 5.3.4 4.1-1.3 8.2-1.3 12.3 0 2 .8 3.9.9 5.8 0 4.3-2 8.4-1.7 12.7.4 5.1-1 14.4 4.1 14.8 5.6.3 4.8-10.3 6.6-15.6a89.1 89.1 0 0 0 4.5-24.6c0-2.9-.8-5.8-.4-8.6.4-3.7 3.4-7 3.3-10.7-.1-2.8-.8-6-3-7.8-2.4-2.3-4.5-1.7-7.9-1.7-2.4-.3-5.9 3.4-6 7.4z" transform="matrix(.89955 -.0338 .02984 .6646 -146.7 -60.6)"/>
    </g>
    <g transform="matrix(.84577 -.03178 .02984 .6646 -134.4 -61.3)">
      <ellipse cx="216.1" cy="275.7" fill="url(#A)" color="#000" overflow="visible" rx="4.1" ry="2.1" style="marker:none"/>
      <path fill="#27a827" d="M219 197.4l-.8 1.6c-.5 7.8-3.3 8.7-2.6 15.3-.5-2.1-1.2-.4-1.9-1-1-.2.5 3.1 1.3 3.4v1c-.6-.7-1.2-1.6-1.4-1 0 0 .6 1.1.6 1.7-.1 0-.3 0-.5-.2l.4.5c-.1 0-.3 0-.6-.3-.8-.2 1.5 1.5 1 2.8-.2-.8-.4-1-.6.3l.2.8c-.2.6-.5 1.1-.8 1.4-.1-.2-.2-.7 0-1.4 1.8-1.3-.8-3.2-.7-5.4 0-4.1 0 3-1.3.9-1-3 .5 2.3-.7 2.2-.6-.2 2.2 1.8 1 2.1V223c-.2 2.9-.3-1.1-1.2-.7 0 .2.4 2-.7 1.8.2 0 .3.2.5.4.5.6 1 1.6 1.5 2.6l-.2.8-1-1 .5-.7c-1 .3-.7-1.5-.8-1.7-.4 0-.5.4-.7 1-.2-.5 0-.2-.3-.3l-.4-1.4c.3-.7 1.2-1.6.9-1.4-1.2.2-.1-5.2-.9-2.2-.2.6-.5.6-.7.3l-.4-2c.4 2.9-.3-1.5-.2-.3v1.2c-.2-1-.4-2 0 .2a5 5 0 0 1-.4 2.2c-.6-.5-1.4-1.9-1.8-2.4.8-1 1.5-3.6.6-3.2-.6.7-1.5-.9-1.7 1.3-.3-2.3-1.3-5 .5-5.8 1-1.4 0-4.2 1-5.7-2.1-.8-.7 6.4-2.6 5 0-2.1.2-5.6 1.4-6-.9-.8-1.6 1.2-1.6 1.8-.3-1.4.6-4.9-.2-2.4-1 2.6-1-2.6-1-1.5-.4 1.8-1.4 2-1.7 0-.3-.7-.8-1.4-1.2-2 .7 1 1 3.3-.2 2.3.8.5 2.2 3.3 1.4 4-.5-1.3-2.3-1.7-2.3-1.3 1.5 0 1 2.4 0 2.6 1.7.4 3.3 2.2 4.4 4.4.4.8 1.2 6.6-.7 5-.6-1.4 1-3.1-.5-3.9-1-.3-1.9-5.3-1.3-2 .3 1.4-.5 2.4-1.2 1.4 1 1 .3 3.2.5 2.8.8-.5 1.7 1.7 1.5 1.6 0 .5.7 2.9-.2 1-.4-1.2-1.7-.4-.6.2 0 1.2-.9 1.5.3 1.7 1.5.2 2.3 4.2 1.9 5.2-.7-.8-1.9-4.4-2-4.6.7 3.3-2-1.2-2.5-2.1-.6-1-2.7-5.2-1.4-1.8.5 1.1 1.3 3.6-.2 2.3-.8-.1-2.8-2.5-2.9-1.4 0-.1 2 2.5.1 1.8-1 0 2.6 1.4 1.3 3.1-.1.1 1.8-1.4 2.5-1.1 1-.3 3 .6 1 .6-.8.1-3 .9-2.8 1.7 1.3.2-1 2.9-.2 2.8 1-1.9 1.4-.2.7 1.4.3 0 1.7-4 2-2.2.6-1.1.7-3 2-1.5 1.5.3 2.5 2.7 3.6 4.5-1.1.7-2.7-1.3-3.9-.6-.5.8-1.2 3.5-.3 1.3 1-3 2.4 2.7.4 2.1-.9.3-3-2.1-1.3.1.5 2-3.2-.5-1.2 1 1.1 0 .9 3.1 1.5 1.3.9-1.4 2.8 1.1 1.6 2.1.8-.3 1.7.4.5 1.4-.9 1.5 2.6-1.6 2.2.3.8-.4 1.4-1.2 1 .8 0 1.7.2 3.6 1 4.7-.9-.2-2.8-.5-3 .2.6.9 1.7 1.7.2 1.4l-.9-.2.6.4c1.2.3-.2 2.8.8 1.5 1.8-2.2 2.2 3.3 3.8 4.2 1.6 1.2 1.5 4.4 2.1 6.8.6 1.4.7 4.6 1.4 5 .8 4 1.8 9.3 4.7 12.5.1.2.9.2 1.1 0 .3.3 1.4.5 1.3.1l-.4-1.8.2-1a15.4 15.4 0 0 0 .7 2.6l.4.2c.4.2.7.3.7 0h.1l.2-.3.4-.5.2-.2c2.6-3.6 3.5-9 4.2-13 .8-.2.5-2 .3-3.8l.3-.4c1.1-1.8 1.7-4.7 3.3-5 1.5-.2 3.2-4.9 4.1-2.3.5 1.6 0-1.1 1-1 1 0 .5 0-.2-.3-1.3-.2-.2-.6.5-1 0-.7-1.7-1.3-2.5-1.4 1-.7 1.5-2.2 2-3.7 0-1.8-.8-2.8-.3-2.2.2-1.5 1.4.5 1.5-1-3.9-1.4 4.7.3 5.7.7 1.9-.5-1.7.3-.8-1.3 1.8-1.3-.4 0-1-.6-1.7-.3.7-4.7.8-1.7.2 2.3.2-.3 0-1.2-.8-1-2.6 0-3.3-1 1.3-1.1 2.7-2.8 4-2.5 1.3-.7-1.4-2.5 1.8-1.3-.7-.4-.6-2.1-1.4-2-.1.1-1.9 2.8-2.6 3.2-.1-1 1.5-4.1 2.7-3.8 1 .3.4-.3.6-1.3 1-.1.2-1.3-.4-.5-1.2 1.3-.1-.5 0-.9-.1 0 1.1-1.5 1.6-.8.1.4 0-1.7 1.1-2.2-.8.6-1.2-.6-.6-1.7 1.2-2.6-.7 1.4-1.6 1.3-1.4 0-.4 2.1-1.3 3-2 .8 0-4 .6-4.5 1.4-1.5 3-2.4 4.5-2-.8-.7-.6-2.9.7-2.3 0-.4-1.5-.8-2.2 0l-2.3 1.6c1.3-1.4 2.4-3.3.7-4.9 0-2.6-.3 2.2-.9 3.1.2 0-2.3-2.6-3.3-2.2.9.8 2.9 2.9 2.3 4.7-1.8.5-1.7-3-3.7-3 .6 1.7 1.7 1.3 2.3 3 .3.3.4.6.5 1 .1 1.3-.8 2.8-1.4 4.2.3-2-.7-1-1.1-1.8-.8-.8-.6 2.8 0 3.4-.2 1.2-.7 1.4-1.2 1 .5-1 1-1.6-.2-.7-.8-.6 1.1-2.7 0-1.7-.7.6.2-.6-.5.4l-.2.2.1-.3c1.4-3.3-1 2.4-1.3 0 0-2.6-.2 1.2-.9 1.6v-.6l.3-2c0-.6-.1.1-.3.6l.1-.4-1 4c-.4-.6-1.3-1.5-.5-1.7 0-.4-.4-.6-1-.8l.1-.9c.8.2 1.6.6 1.5.6-1.4-1.3 2-3 1-2.8-1.8.9-.1-1.7 0-1.5-.3-1-2 1.3-2.9 1.5 0 .1 0 .2-.2.2.1-.4 0-.5-.2.2-.8.4-.3-1.4 0-2.3 1-2.9-.5.5-1 1.5-.2-1-.2-2-.3 0v.2c-.4-1.1-.1 0-.3.8l-.3.6c-.5-1-.5-1-.5-.4h-.6c-.2-1 .2-1.7 1-.3.5-.1-.5-1.2-.8-2 .8-.9 1.4-2.5.7-2.3-1-1.5 2-3.3 1.1-3.1-1.7 1 0-2 0-1.8-.3-1-1.8 1.4-2.7 1.8.1-.7.5-1.3 1.1-1.4 1.3-1 .6-4 1.8-5-1.4-1-1.6 3.2-2.4 4.1-.3-.2-.5-.5-.6-.9l.2-.8c.1-.1.3-.3.7-.3 0-.2-.3-.2-.6 0 .4-1.7 1-3.3 1.7-3.4-.6-1-1.6.8-1.7 1.3 0-1.3 1.3-4.4.2-2.3-1.2 2.1-.5-2.6-.8-1.6-.5 1.5-1.4 1.5-1.4-.5l-.8-2c.5.9.4 3-.4 2.1l.3-.2-.4.1-.2.1h.2c.7.8 1.4 3.5.7 3.9-.3-1.3-1.9-2-2-1.7 1.4.4.7 2.5-.3 2.4l1 .7c-.4.3-.8 0-1-.7v-.9c.1-2.1 0-.7-.4.7-.1.8-.4 1.5-.7 1.6-.7.5-.7 1-.5 1.6-.2-.2-.5-.2-.9 0 .7.5.8 1.6.9 2.6-1.3.8-1.2-4.3-.9-5.2.9-2.3 2.3-4.2 4-5-1.1 0-1.8-2.2-.3-2.5 0-.5-1.8.1-2.2 1.5-.8-.5.3-3.5 1-4.1-1 1-1-.7-.6-1.8zm-21.2 11.1h-.6.6zm22.8 1.2l.2.2c0 .4-.1.8-.3.7l.1-.9zm-1 3.2l.4 1.2c-.2 0-.4-.2-.6-.5.3.3.4.7.4 1l-.1.2-.4.8c0-.3.2-2.2 0-1.6l.1-.4.3-.7zm2.7 2.5l-.2.5v-.2l.2-.3zm-2.7 1.7c.3.3.3.8.4 1.3-.4-.3-1 0-.3.7-.1.8-.6 1-.4 1.3l-.6.1c0-1.2.4-2.7 1-3.4zm3.2.5v.3l-.5.5c-1.2.1-.3-.5.5-.8zm2 .1l1 .4c-.4.1-.7-.3-1-.2v-.2zm19 .8c.1.1.2.2.4.1h-.4zm-28 2.6c0 .2-.2.4-.4.6v-.5h.3zm26.6 1s0 .2-.2.3l.2-.2zm-16.8.6v1.1c-.6 1-1.2 1.7-1 .1l-.6 2c-1-.7.2-1.9 1-2.6l.5.5-.4-.6.5-.5zm-20.3 1h.3l.5.1-.3 1.7h-.6c.2.5 0 1-.5 1.5 0-1 .9-2.4.5-2.1-.5-.2-.5-.6-.3-1.1.1 0 .3-.1.4 0zm1.2.2h.1c0 .5.2.9.8 1.1v1.2l-1-.5c0-.4 0-.8.2-1.3l-.1-.5zm21.5.1h.5l-.2.6c-.2 0-.3-.3-.3-.6zm-26 .4c.3.9-.2.3 0 0zm16.6.1l.3.2a1 1 0 0 1-.4 0l.1-.2zm-.2.5l.7.7c-.3.2-.7.4-1 .2l.3-.9zm5.4 1.3c0 .3-.2.6-.3.8l-.2.2.5-1zm2 .1l.1.1c0 1-.1 1.4-.3 1.5l-.6-.5v-.4l.4-.3.4-.4zm8.1.2c.4 1.1 1 3.2 0 3.2-.2-.4.2 1.5 0 2.3-.5-.3-.7-.6-.8-1l.3-2.5c.6.2 1 .6.2-.4l.3-1.6zm-4.6 1c.2-.1.3 0 .6.1-.1.3-.2.9-.5 1-.3-.5-.3-1 0-1.2zm-24.4.3h0zm19.1 0l-.2.5h-.1l.3-.4zm4.4.1l.5.5c-.3 0-.4-.2-.5-.5zm4.6.6l-.2.2c0 .7 0 1.2-.3 1.5l-.7.1c-.1-.2 0-.7.3-1.3.4 0 .6-.2.8-.5zm-4 0l.1.2h-.2l.4 1.3-.6 1v-.8c0-.1 0-.3 0 0-.1-.6-.1-.4-.2.1 0 .2-.2.4-.4.5v-1.5l.7-.7h.2zm-19.5.7h.1l.4 1.5h-.6c.2.4.2.8-.3 1.2 0-.9.1-1.8.4-2.7zm1.3.2v.1zm16.7.7l-.1 1-.2-.4.3-.6zm-15.4.1v.2c0 .6-.2.9-.3 1l-.2-.2.5-1zm24.5.4c.2.3-.5.6 0 0zm-8.2.2l-.3 1.6a9 9 0 0 1 .3-1.6zm1 .5v0zm-2.5.2c.2.3.3.6.3 1a2 2 0 0 1-.7.3c0-.4.2-.9.4-1.3zm2.5 1v.4c-.1.9-.3 1.7-.7 2.2-.2.4-.4.6-.5.6l.6-2.4.6-.4-.5.2.5-.6zm-20 .3v0zm17.5 1.7v.7c-.2 0-.3-.1-.4-.6l.4-.1zm-15.6 3.6l.5 1.3-.2 1-.5-1 .2-1.3zm1.1 2.4l.2.3-.2.2v-.4zm-2 1.6l.6.3c-.4.8-.8 1.4-1 .8 0-.3.3-.7.4-1.1zm2.4 1.1c.5.3 1 .8 1.1 1.8.3 1.4-.6-.4-.4 1 .2 2.3.3 4.7.3 7.1.2 1.8-1 5.4-.3 6.4a44 44 0 0 0 1.4 14.9 25.2 25.2 0 0 1-3.9-13.7v-.4-.2c-.4-1.4-1-3.2-1-4.4-.3-2.4-.5-4.9-.5-7.2.1-1.4-.6.6-.5-.9.2-2.8 3-2.2 3.8-4.4zm13 .3v.4h-.3l.3-.4zm-.4 2.7c.2.5.4 1 .2 1.9-.3 1.3-.4-.7-.6.5l-1.1 3.7c0-1.2.2-2.4.4-3.5.3-1.3-.6.4-.3-1 .2-1 .7-1.4 1.4-1.6zm-22.3 0c.1 0 .6.4 0 0zm15 .7l.1.4c.2 1.2-.6-.4-.4.8.2 2 .3 4 .3 6.1.2 1.4-1 4.2-.5 5.2-.4 2.2-1 5-1.2 8l-1 3c-.6-3.7-.8-6.8-.5-10 .8-.2.5-3.7 1-5.2.4-2.5-.1-5.6 1.4-7l.8-1.3zm12.5 2.2l.1.1c-.4 0-.2 0 0 0zM221 251c1 1.6.5 4.3.7 6.6l-.7 1.3-2.4 4.2 1-3h.1v-.3c.3-1 .2-2.7.5-3.6.4-1.7.1-3.8.8-5.2zm.6 10.6c0 4.4-1.1 7.9-3.5 12.4a45 45 0 0 1-.3-5.3c1-2.9 2.2-5.2 3.8-7.1z"/>
      <path fill="url(#B)" d="M219 197.4l-.8 1.6c-.5 7.8-3.3 8.7-2.6 15.3-.5-2.1-1.2-.4-1.9-1-1-.2.5 3.1 1.3 3.4v1c-.6-.7-1.2-1.6-1.4-1 0 0 .6 1.1.6 1.7-.1 0-.3 0-.5-.2l.4.5c-.1 0-.3 0-.6-.3-.8-.2 1.5 1.5 1 2.8-.2-.8-.4-1-.6.3l.2.8c-.2.6-.5 1.1-.8 1.4-.1-.2-.2-.7 0-1.4 1.8-1.3-.8-3.2-.7-5.4 0-4.1 0 3-1.3.9-1-3 .5 2.3-.7 2.2-.6-.2 2.2 1.8 1 2.1V223c-.2 2.9-.3-1.1-1.2-.7 0 .2.4 2-.7 1.8.2 0 .3.2.5.4.5.6 1 1.6 1.5 2.6l-.2.8-1-1 .5-.7c-1 .3-.7-1.5-.8-1.7-.4 0-.5.4-.7 1-.2-.5 0-.2-.3-.3l-.4-1.4c.3-.7 1.2-1.6.9-1.4-1.2.2-.1-5.2-.9-2.2-.2.6-.5.6-.7.3l-.4-2c.4 2.9-.3-1.5-.2-.3v1.2c-.2-1-.4-2 0 .2a5 5 0 0 1-.4 2.2c-.6-.5-1.4-1.9-1.8-2.4.8-1 1.5-3.6.6-3.2-.6.7-1.5-.9-1.7 1.3-.3-2.3-1.3-5 .5-5.8 1-1.4 0-4.2 1-5.7-2.1-.8-.7 6.4-2.6 5 0-2.1.2-5.6 1.4-6-.9-.8-1.6 1.2-1.6 1.8-.3-1.4.6-4.9-.2-2.4-1 2.6-1-2.6-1-1.5-.4 1.8-1.4 2-1.7 0-.3-.7-.8-1.4-1.2-2 .7 1 1 3.3-.2 2.3.8.5 2.2 3.3 1.4 4-.5-1.3-2.3-1.7-2.3-1.3 1.5 0 1 2.4 0 2.6 1.7.4 3.3 2.2 4.4 4.4.4.8 1.2 6.6-.7 5-.6-1.4 1-3.1-.5-3.9-1-.3-1.9-5.3-1.3-2 .3 1.4-.5 2.4-1.2 1.4 1 1 .3 3.2.5 2.8.8-.5 1.7 1.7 1.5 1.6 0 .5.7 2.9-.2 1-.4-1.2-1.7-.4-.6.2 0 1.2-.9 1.5.3 1.7 1.5.2 2.3 4.2 1.9 5.2-.7-.8-1.9-4.4-2-4.6.7 3.3-2-1.2-2.5-2.1-.6-1-2.7-5.2-1.4-1.8.5 1.1 1.3 3.6-.2 2.3-.8-.1-2.8-2.5-2.9-1.4 0-.1 2 2.5.1 1.8-1 0 2.6 1.4 1.3 3.1-.1.1 1.8-1.4 2.5-1.1 1-.3 3 .6 1 .6-.8.1-3 .9-2.8 1.7 1.3.2-1 2.9-.2 2.8 1-1.9 1.4-.2.7 1.4.3 0 1.7-4 2-2.2.6-1.1.7-3 2-1.5 1.5.3 2.5 2.7 3.6 4.5-1.1.7-2.7-1.3-3.9-.6-.5.8-1.2 3.5-.3 1.3 1-3 2.4 2.7.4 2.1-.9.3-3-2.1-1.3.1.5 2-3.2-.5-1.2 1 1.1 0 .9 3.1 1.5 1.3.9-1.4 2.8 1.1 1.6 2.1.8-.3 1.7.4.5 1.4-.9 1.5 2.6-1.6 2.2.3.8-.4 1.4-1.2 1 .8 0 1.7.2 3.6 1 4.7-.9-.2-2.8-.5-3 .2.6.9 1.7 1.7.2 1.4l-.9-.2.6.4c1.2.3-.2 2.8.8 1.5 1.8-2.2 2.2 3.3 3.8 4.2 1.6 1.2 1.5 4.4 2.1 6.8.6 1.4.7 4.6 1.4 5 .8 4 1.8 9.3 4.7 12.5.1.2.9.2 1.1 0 .3.3 1.4.5 1.3.1l-.4-1.8.2-1a15.4 15.4 0 0 0 .7 2.6l.4.2c.4.2.7.3.7 0h.1l.2-.3.4-.5.2-.2c2.6-3.6 3.5-9 4.2-13 .8-.2.5-2 .3-3.8l.3-.4c1.1-1.8 1.7-4.7 3.3-5 1.5-.2 3.2-4.9 4.1-2.3.5 1.6 0-1.1 1-1 1 0 .5 0-.2-.3-1.3-.2-.2-.6.5-1 0-.7-1.7-1.3-2.5-1.4 1-.7 1.5-2.2 2-3.7 0-1.8-.8-2.8-.3-2.2.2-1.5 1.4.5 1.5-1-3.9-1.4 4.7.3 5.7.7 1.9-.5-1.7.3-.8-1.3 1.8-1.3-.4 0-1-.6-1.7-.3.7-4.7.8-1.7.2 2.3.2-.3 0-1.2-.8-1-2.6 0-3.3-1 1.3-1.1 2.7-2.8 4-2.5 1.3-.7-1.4-2.5 1.8-1.3-.7-.4-.6-2.1-1.4-2-.1.1-1.9 2.8-2.6 3.2-.1-1 1.5-4.1 2.7-3.8 1 .3.4-.3.6-1.3 1-.1.2-1.3-.4-.5-1.2 1.3-.1-.5 0-.9-.1 0 1.1-1.5 1.6-.8.1.4 0-1.7 1.1-2.2-.8.6-1.2-.6-.6-1.7 1.2-2.6-.7 1.4-1.6 1.3-1.4 0-.4 2.1-1.3 3-2 .8 0-4 .6-4.5 1.4-1.5 3-2.4 4.5-2-.8-.7-.6-2.9.7-2.3 0-.4-1.5-.8-2.2 0l-2.3 1.6c1.3-1.4 2.4-3.3.7-4.9 0-2.6-.3 2.2-.9 3.1.2 0-2.3-2.6-3.3-2.2.9.8 2.9 2.9 2.3 4.7-1.8.5-1.7-3-3.7-3 .6 1.7 1.7 1.3 2.3 3 .3.3.4.6.5 1 .1 1.3-.8 2.8-1.4 4.2.3-2-.7-1-1.1-1.8-.8-.8-.6 2.8 0 3.4-.2 1.2-.7 1.4-1.2 1 .5-1 1-1.6-.2-.7-.8-.6 1.1-2.7 0-1.7-.7.6.2-.6-.5.4l-.2.2.1-.3c1.4-3.3-1 2.4-1.3 0 0-2.6-.2 1.2-.9 1.6v-.6l.3-2c0-.6-.1.1-.3.6l.1-.4-1 4c-.4-.6-1.3-1.5-.5-1.7 0-.4-.4-.6-1-.8l.1-.9c.8.2 1.6.6 1.5.6-1.4-1.3 2-3 1-2.8-1.8.9-.1-1.7 0-1.5-.3-1-2 1.3-2.9 1.5 0 .1 0 .2-.2.2.1-.4 0-.5-.2.2-.8.4-.3-1.4 0-2.3 1-2.9-.5.5-1 1.5-.2-1-.2-2-.3 0v.2c-.4-1.1-.1 0-.3.8l-.3.6c-.5-1-.5-1-.5-.4h-.6c-.2-1 .2-1.7 1-.3.5-.1-.5-1.2-.8-2 .8-.9 1.4-2.5.7-2.3-1-1.5 2-3.3 1.1-3.1-1.7 1 0-2 0-1.8-.3-1-1.8 1.4-2.7 1.8.1-.7.5-1.3 1.1-1.4 1.3-1 .6-4 1.8-5-1.4-1-1.6 3.2-2.4 4.1-.3-.2-.5-.5-.6-.9l.2-.8c.1-.1.3-.3.7-.3 0-.2-.3-.2-.6 0 .4-1.7 1-3.3 1.7-3.4-.6-1-1.6.8-1.7 1.3 0-1.3 1.3-4.4.2-2.3-1.2 2.1-.5-2.6-.8-1.6-.5 1.5-1.4 1.5-1.4-.5l-.8-2c.5.9.4 3-.4 2.1l.3-.2-.4.1-.2.1h.2c.7.8 1.4 3.5.7 3.9-.3-1.3-1.9-2-2-1.7 1.4.4.7 2.5-.3 2.4l1 .7c-.4.3-.8 0-1-.7v-.9c.1-2.1 0-.7-.4.7-.1.8-.4 1.5-.7 1.6-.7.5-.7 1-.5 1.6-.2-.2-.5-.2-.9 0 .7.5.8 1.6.9 2.6-1.3.8-1.2-4.3-.9-5.2.9-2.3 2.3-4.2 4-5-1.1 0-1.8-2.2-.3-2.5 0-.5-1.8.1-2.2 1.5-.8-.5.3-3.5 1-4.1-1 1-1-.7-.6-1.8zm-21.2 11.1h-.6.6zm22.8 1.2l.2.2c0 .4-.1.8-.3.7l.1-.9zm-1 3.2l.4 1.2c-.2 0-.4-.2-.6-.5.3.3.4.7.4 1l-.1.2-.4.8c0-.3.2-2.2 0-1.6l.1-.4.3-.7zm2.7 2.5l-.2.5v-.2l.2-.3zm-2.7 1.7c.3.3.3.8.4 1.3-.4-.3-1 0-.3.7-.1.8-.6 1-.4 1.3l-.6.1c0-1.2.4-2.7 1-3.4zm3.2.5v.3l-.5.5c-1.2.1-.3-.5.5-.8zm2 .1l1 .4c-.4.1-.7-.3-1-.2v-.2zm19 .8c.1.1.2.2.4.1h-.4zm-28 2.6c0 .2-.2.4-.4.6v-.5h.3zm26.6 1s0 .2-.2.3l.2-.2zm-16.8.6v1.1c-.6 1-1.2 1.7-1 .1l-.6 2c-1-.7.2-1.9 1-2.6l.5.5-.4-.6.5-.5zm-20.3 1h.3l.5.1-.3 1.7h-.6c.2.5 0 1-.5 1.5 0-1 .9-2.4.5-2.1-.5-.2-.5-.6-.3-1.1.1 0 .3-.1.4 0zm1.2.2h.1c0 .5.2.9.8 1.1v1.2l-1-.5c0-.4 0-.8.2-1.3l-.1-.5zm21.5.1h.5l-.2.6c-.2 0-.3-.3-.3-.6zm-26 .4c.3.9-.2.3 0 0zm16.6.1l.3.2a1 1 0 0 1-.4 0l.1-.2zm-.2.5l.7.7c-.3.2-.7.4-1 .2l.3-.9zm5.4 1.3c0 .3-.2.6-.3.8l-.2.2.5-1zm2 .1l.1.1c0 1-.1 1.4-.3 1.5l-.6-.5v-.4l.4-.3.4-.4zm8.1.2c.4 1.1 1 3.2 0 3.2-.2-.4.2 1.5 0 2.3-.5-.3-.7-.6-.8-1l.3-2.5c.6.2 1 .6.2-.4l.3-1.6zm-4.6 1c.2-.1.3 0 .6.1-.1.3-.2.9-.5 1-.3-.5-.3-1 0-1.2zm-24.4.3h0zm19.1 0l-.2.5h-.1l.3-.4zm4.4.1l.5.5c-.3 0-.4-.2-.5-.5zm4.6.6l-.2.2c0 .7 0 1.2-.3 1.5l-.7.1c-.1-.2 0-.7.3-1.3.4 0 .6-.2.8-.5zm-4 0l.1.2h-.2l.4 1.3-.6 1v-.8c0-.1 0-.3 0 0-.1-.6-.1-.4-.2.1 0 .2-.2.4-.4.5v-1.5l.7-.7h.2zm-19.5.7h.1l.4 1.5h-.6c.2.4.2.8-.3 1.2 0-.9.1-1.8.4-2.7zm1.3.2v.1zm16.7.7l-.1 1-.2-.4.3-.6zm-15.4.1v.2c0 .6-.2.9-.3 1l-.2-.2.5-1zm24.5.4c.2.3-.5.6 0 0zm-8.2.2l-.3 1.6a9 9 0 0 1 .3-1.6zm1 .5v0zm-2.5.2c.2.3.3.6.3 1a2 2 0 0 1-.7.3c0-.4.2-.9.4-1.3zm2.5 1v.4c-.1.9-.3 1.7-.7 2.2-.2.4-.4.6-.5.6l.6-2.4.6-.4-.5.2.5-.6zm-20 .3v0zm17.5 1.7v.7c-.2 0-.3-.1-.4-.6l.4-.1zm-15.6 3.6l.5 1.3-.2 1-.5-1 .2-1.3zm1.1 2.4l.2.3-.2.2v-.4zm-2 1.6l.6.3c-.4.8-.8 1.4-1 .8 0-.3.3-.7.4-1.1zm2.4 1.1c.5.3 1 .8 1.1 1.8.3 1.4-.6-.4-.4 1 .2 2.3.3 4.7.3 7.1.2 1.8-1 5.4-.3 6.4a44 44 0 0 0 1.4 14.9 25.2 25.2 0 0 1-3.9-13.7v-.4-.2c-.4-1.4-1-3.2-1-4.4-.3-2.4-.5-4.9-.5-7.2.1-1.4-.6.6-.5-.9.2-2.8 3-2.2 3.8-4.4zm13 .3v.4h-.3l.3-.4zm-.4 2.7c.2.5.4 1 .2 1.9-.3 1.3-.4-.7-.6.5l-1.1 3.7c0-1.2.2-2.4.4-3.5.3-1.3-.6.4-.3-1 .2-1 .7-1.4 1.4-1.6zm-22.3 0c.1 0 .6.4 0 0zm15 .7l.1.4c.2 1.2-.6-.4-.4.8.2 2 .3 4 .3 6.1.2 1.4-1 4.2-.5 5.2-.4 2.2-1 5-1.2 8l-1 3c-.6-3.7-.8-6.8-.5-10 .8-.2.5-3.7 1-5.2.4-2.5-.1-5.6 1.4-7l.8-1.3zm12.5 2.2l.1.1c-.4 0-.2 0 0 0zM221 251c1 1.6.5 4.3.7 6.6l-.7 1.3-2.4 4.2 1-3h.1v-.3c.3-1 .2-2.7.5-3.6.4-1.7.1-3.8.8-5.2zm.6 10.6c0 4.4-1.1 7.9-3.5 12.4a45 45 0 0 1-.3-5.3c1-2.9 2.2-5.2 3.8-7.1z"/>
      <path fill="url(#C)" d="M219 197.4l-.8 1.6c-.5 7.8-3.3 8.7-2.6 15.3-.5-2.1-1.2-.4-1.9-1-1-.2.5 3.1 1.3 3.4v1c-.6-.7-1.2-1.6-1.4-1 0 0 .6 1.1.6 1.7-.1 0-.3 0-.5-.2l.4.5c-.1 0-.3 0-.6-.3-.8-.2 1.5 1.5 1 2.8-.2-.8-.4-1-.6.3l.2.8c-.2.6-.5 1.1-.8 1.4-.1-.2-.2-.7 0-1.4 1.8-1.3-.8-3.2-.7-5.4 0-4.1 0 3-1.3.9-1-3 .5 2.3-.7 2.2-.6-.2 2.2 1.8 1 2.1V223c-.2 2.9-.3-1.1-1.2-.7 0 .2.4 2-.7 1.8.2 0 .3.2.5.4.5.6 1 1.6 1.5 2.6l-.2.8-1-1 .5-.7c-1 .3-.7-1.5-.8-1.7-.4 0-.5.4-.7 1-.2-.5 0-.2-.3-.3l-.4-1.4c.3-.7 1.2-1.6.9-1.4-1.2.2-.1-5.2-.9-2.2-.2.6-.5.6-.7.3l-.4-2c.4 2.9-.3-1.5-.2-.3v1.2c-.2-1-.4-2 0 .2a5 5 0 0 1-.4 2.2c-.6-.5-1.4-1.9-1.8-2.4.8-1 1.5-3.6.6-3.2-.6.7-1.5-.9-1.7 1.3-.3-2.3-1.3-5 .5-5.8 1-1.4 0-4.2 1-5.7-2.1-.8-.7 6.4-2.6 5 0-2.1.2-5.6 1.4-6-.9-.8-1.6 1.2-1.6 1.8-.3-1.4.6-4.9-.2-2.4-1 2.6-1-2.6-1-1.5-.4 1.8-1.4 2-1.7 0-.3-.7-.8-1.4-1.2-2 .7 1 1 3.3-.2 2.3.8.5 2.2 3.3 1.4 4-.5-1.3-2.3-1.7-2.3-1.3 1.5 0 1 2.4 0 2.6 1.7.4 3.3 2.2 4.4 4.4.4.8 1.2 6.6-.7 5-.6-1.4 1-3.1-.5-3.9-1-.3-1.9-5.3-1.3-2 .3 1.4-.5 2.4-1.2 1.4 1 1 .3 3.2.5 2.8.8-.5 1.7 1.7 1.5 1.6 0 .5.7 2.9-.2 1-.4-1.2-1.7-.4-.6.2 0 1.2-.9 1.5.3 1.7 1.5.2 2.3 4.2 1.9 5.2-.7-.8-1.9-4.4-2-4.6.7 3.3-2-1.2-2.5-2.1-.6-1-2.7-5.2-1.4-1.8.5 1.1 1.3 3.6-.2 2.3-.8-.1-2.8-2.5-2.9-1.4 0-.1 2 2.5.1 1.8-1 0 2.6 1.4 1.3 3.1-.1.1 1.8-1.4 2.5-1.1 1-.3 3 .6 1 .6-.8.1-3 .9-2.8 1.7 1.3.2-1 2.9-.2 2.8 1-1.9 1.4-.2.7 1.4.3 0 1.7-4 2-2.2.6-1.1.7-3 2-1.5 1.5.3 2.5 2.7 3.6 4.5-1.1.7-2.7-1.3-3.9-.6-.5.8-1.2 3.5-.3 1.3 1-3 2.4 2.7.4 2.1-.9.3-3-2.1-1.3.1.5 2-3.2-.5-1.2 1 1.1 0 .9 3.1 1.5 1.3.9-1.4 2.8 1.1 1.6 2.1.8-.3 1.7.4.5 1.4-.9 1.5 2.6-1.6 2.2.3.8-.4 1.4-1.2 1 .8 0 1.7.2 3.6 1 4.7-.9-.2-2.8-.5-3 .2.6.9 1.7 1.7.2 1.4l-.9-.2.6.4c1.2.3-.2 2.8.8 1.5 1.8-2.2 2.2 3.3 3.8 4.2 1.6 1.2 1.5 4.4 2.1 6.8.6 1.4.7 4.6 1.4 5 .8 4 1.8 9.3 4.7 12.5.1.2.9.2 1.1 0 .3.3 1.4.5 1.3.1l-.4-1.8.2-1a15.4 15.4 0 0 0 .7 2.6l.4.2c.4.2.7.3.7 0h.1l.2-.3.4-.5.2-.2c2.6-3.6 3.5-9 4.2-13 .8-.2.5-2 .3-3.8l.3-.4c1.1-1.8 1.7-4.7 3.3-5 1.5-.2 3.2-4.9 4.1-2.3.5 1.6 0-1.1 1-1 1 0 .5 0-.2-.3-1.3-.2-.2-.6.5-1 0-.7-1.7-1.3-2.5-1.4 1-.7 1.5-2.2 2-3.7 0-1.8-.8-2.8-.3-2.2.2-1.5 1.4.5 1.5-1-3.9-1.4 4.7.3 5.7.7 1.9-.5-1.7.3-.8-1.3 1.8-1.3-.4 0-1-.6-1.7-.3.7-4.7.8-1.7.2 2.3.2-.3 0-1.2-.8-1-2.6 0-3.3-1 1.3-1.1 2.7-2.8 4-2.5 1.3-.7-1.4-2.5 1.8-1.3-.7-.4-.6-2.1-1.4-2-.1.1-1.9 2.8-2.6 3.2-.1-1 1.5-4.1 2.7-3.8 1 .3.4-.3.6-1.3 1-.1.2-1.3-.4-.5-1.2 1.3-.1-.5 0-.9-.1 0 1.1-1.5 1.6-.8.1.4 0-1.7 1.1-2.2-.8.6-1.2-.6-.6-1.7 1.2-2.6-.7 1.4-1.6 1.3-1.4 0-.4 2.1-1.3 3-2 .8 0-4 .6-4.5 1.4-1.5 3-2.4 4.5-2-.8-.7-.6-2.9.7-2.3 0-.4-1.5-.8-2.2 0l-2.3 1.6c1.3-1.4 2.4-3.3.7-4.9 0-2.6-.3 2.2-.9 3.1.2 0-2.3-2.6-3.3-2.2.9.8 2.9 2.9 2.3 4.7-1.8.5-1.7-3-3.7-3 .6 1.7 1.7 1.3 2.3 3 .3.3.4.6.5 1 .1 1.3-.8 2.8-1.4 4.2.3-2-.7-1-1.1-1.8-.8-.8-.6 2.8 0 3.4-.2 1.2-.7 1.4-1.2 1 .5-1 1-1.6-.2-.7-.8-.6 1.1-2.7 0-1.7-.7.6.2-.6-.5.4l-.2.2.1-.3c1.4-3.3-1 2.4-1.3 0 0-2.6-.2 1.2-.9 1.6v-.6l.3-2c0-.6-.1.1-.3.6l.1-.4-1 4c-.4-.6-1.3-1.5-.5-1.7 0-.4-.4-.6-1-.8l.1-.9c.8.2 1.6.6 1.5.6-1.4-1.3 2-3 1-2.8-1.8.9-.1-1.7 0-1.5-.3-1-2 1.3-2.9 1.5 0 .1 0 .2-.2.2.1-.4 0-.5-.2.2-.8.4-.3-1.4 0-2.3 1-2.9-.5.5-1 1.5-.2-1-.2-2-.3 0v.2c-.4-1.1-.1 0-.3.8l-.3.6c-.5-1-.5-1-.5-.4h-.6c-.2-1 .2-1.7 1-.3.5-.1-.5-1.2-.8-2 .8-.9 1.4-2.5.7-2.3-1-1.5 2-3.3 1.1-3.1-1.7 1 0-2 0-1.8-.3-1-1.8 1.4-2.7 1.8.1-.7.5-1.3 1.1-1.4 1.3-1 .6-4 1.8-5-1.4-1-1.6 3.2-2.4 4.1-.3-.2-.5-.5-.6-.9l.2-.8c.1-.1.3-.3.7-.3 0-.2-.3-.2-.6 0 .4-1.7 1-3.3 1.7-3.4-.6-1-1.6.8-1.7 1.3 0-1.3 1.3-4.4.2-2.3-1.2 2.1-.5-2.6-.8-1.6-.5 1.5-1.4 1.5-1.4-.5l-.8-2c.5.9.4 3-.4 2.1l.3-.2-.4.1-.2.1h.2c.7.8 1.4 3.5.7 3.9-.3-1.3-1.9-2-2-1.7 1.4.4.7 2.5-.3 2.4l1 .7c-.4.3-.8 0-1-.7v-.9c.1-2.1 0-.7-.4.7-.1.8-.4 1.5-.7 1.6-.7.5-.7 1-.5 1.6-.2-.2-.5-.2-.9 0 .7.5.8 1.6.9 2.6-1.3.8-1.2-4.3-.9-5.2.9-2.3 2.3-4.2 4-5-1.1 0-1.8-2.2-.3-2.5 0-.5-1.8.1-2.2 1.5-.8-.5.3-3.5 1-4.1-1 1-1-.7-.6-1.8zm-21.2 11.1h-.6.6zm22.8 1.2l.2.2c0 .4-.1.8-.3.7l.1-.9zm-1 3.2l.4 1.2c-.2 0-.4-.2-.6-.5.3.3.4.7.4 1l-.1.2-.4.8c0-.3.2-2.2 0-1.6l.1-.4.3-.7zm2.7 2.5l-.2.5v-.2l.2-.3zm-2.7 1.7c.3.3.3.8.4 1.3-.4-.3-1 0-.3.7-.1.8-.6 1-.4 1.3l-.6.1c0-1.2.4-2.7 1-3.4zm3.2.5v.3l-.5.5c-1.2.1-.3-.5.5-.8zm2 .1l1 .4c-.4.1-.7-.3-1-.2v-.2zm19 .8c.1.1.2.2.4.1h-.4zm-28 2.6c0 .2-.2.4-.4.6v-.5h.3zm26.6 1s0 .2-.2.3l.2-.2zm-16.8.6v1.1c-.6 1-1.2 1.7-1 .1l-.6 2c-1-.7.2-1.9 1-2.6l.5.5-.4-.6.5-.5zm-20.3 1h.3l.5.1-.3 1.7h-.6c.2.5 0 1-.5 1.5 0-1 .9-2.4.5-2.1-.5-.2-.5-.6-.3-1.1.1 0 .3-.1.4 0zm1.2.2h.1c0 .5.2.9.8 1.1v1.2l-1-.5c0-.4 0-.8.2-1.3l-.1-.5zm21.5.1h.5l-.2.6c-.2 0-.3-.3-.3-.6zm-26 .4c.3.9-.2.3 0 0zm16.6.1l.3.2a1 1 0 0 1-.4 0l.1-.2zm-.2.5l.7.7c-.3.2-.7.4-1 .2l.3-.9zm5.4 1.3c0 .3-.2.6-.3.8l-.2.2.5-1zm2 .1l.1.1c0 1-.1 1.4-.3 1.5l-.6-.5v-.4l.4-.3.4-.4zm8.1.2c.4 1.1 1 3.2 0 3.2-.2-.4.2 1.5 0 2.3-.5-.3-.7-.6-.8-1l.3-2.5c.6.2 1 .6.2-.4l.3-1.6zm-4.6 1c.2-.1.3 0 .6.1-.1.3-.2.9-.5 1-.3-.5-.3-1 0-1.2zm-24.4.3h0zm19.1 0l-.2.5h-.1l.3-.4zm4.4.1l.5.5c-.3 0-.4-.2-.5-.5zm4.6.6l-.2.2c0 .7 0 1.2-.3 1.5l-.7.1c-.1-.2 0-.7.3-1.3.4 0 .6-.2.8-.5zm-4 0l.1.2h-.2l.4 1.3-.6 1v-.8c0-.1 0-.3 0 0-.1-.6-.1-.4-.2.1 0 .2-.2.4-.4.5v-1.5l.7-.7h.2zm-19.5.7h.1l.4 1.5h-.6c.2.4.2.8-.3 1.2 0-.9.1-1.8.4-2.7zm1.3.2v.1zm16.7.7l-.1 1-.2-.4.3-.6zm-15.4.1v.2c0 .6-.2.9-.3 1l-.2-.2.5-1zm24.5.4c.2.3-.5.6 0 0zm-8.2.2l-.3 1.6a9 9 0 0 1 .3-1.6zm1 .5v0zm-2.5.2c.2.3.3.6.3 1a2 2 0 0 1-.7.3c0-.4.2-.9.4-1.3zm2.5 1v.4c-.1.9-.3 1.7-.7 2.2-.2.4-.4.6-.5.6l.6-2.4.6-.4-.5.2.5-.6zm-20 .3v0zm17.5 1.7v.7c-.2 0-.3-.1-.4-.6l.4-.1zm-15.6 3.6l.5 1.3-.2 1-.5-1 .2-1.3zm1.1 2.4l.2.3-.2.2v-.4zm-2 1.6l.6.3c-.4.8-.8 1.4-1 .8 0-.3.3-.7.4-1.1zm2.4 1.1c.5.3 1 .8 1.1 1.8.3 1.4-.6-.4-.4 1 .2 2.3.3 4.7.3 7.1.2 1.8-1 5.4-.3 6.4a44 44 0 0 0 1.4 14.9 25.2 25.2 0 0 1-3.9-13.7v-.4-.2c-.4-1.4-1-3.2-1-4.4-.3-2.4-.5-4.9-.5-7.2.1-1.4-.6.6-.5-.9.2-2.8 3-2.2 3.8-4.4zm13 .3v.4h-.3l.3-.4zm-.4 2.7c.2.5.4 1 .2 1.9-.3 1.3-.4-.7-.6.5l-1.1 3.7c0-1.2.2-2.4.4-3.5.3-1.3-.6.4-.3-1 .2-1 .7-1.4 1.4-1.6zm-22.3 0c.1 0 .6.4 0 0zm15 .7l.1.4c.2 1.2-.6-.4-.4.8.2 2 .3 4 .3 6.1.2 1.4-1 4.2-.5 5.2-.4 2.2-1 5-1.2 8l-1 3c-.6-3.7-.8-6.8-.5-10 .8-.2.5-3.7 1-5.2.4-2.5-.1-5.6 1.4-7l.8-1.3zm12.5 2.2l.1.1c-.4 0-.2 0 0 0zM221 251c1 1.6.5 4.3.7 6.6l-.7 1.3-2.4 4.2 1-3h.1v-.3c.3-1 .2-2.7.5-3.6.4-1.7.1-3.8.8-5.2zm.6 10.6c0 4.4-1.1 7.9-3.5 12.4a45 45 0 0 1-.3-5.3c1-2.9 2.2-5.2 3.8-7.1z"/>
      <path fill="#186618" d="M206.5 213.6c.6-1 0-1.6.9-1.7.6-.6-1.4-1.2.8-1.1-.5 0-.8-1.2-1.2-1-.1.1-.7 2.1-1 2.5-.3-.6 0-2.8.9-2.8.7 0 .2-.3.1-1 .6-.2-.1-.8-.3-.1-.5 1-.2-.3-.2-.6 0 0 .4-1.1.8-.8.2.2-.3-1 .3-1.5-.4.5-1-.2-.8-1 .3-1.7-.1 1-.6 1.2-1 .2 0 1.3-.3 2-1 .9-.7-2.4-.5-2.8.6-1.2 1.4-2 2.4-2.1-.6-.2-1-1.6 0-1.5 0-.2-1.1-.2-1.4.5l-1 1.3c.5-1 .7-2.4-.5-3-.6-1.6.2 1.3 0 2 .1 0-1.9-1.2-2.4-.7.6.3 2.2 1.2 2.3 2.4-1 .6-1.6-1.5-2.8-1.2.6 1 1.2.5 2 1.4l.4.5s0 .1 0 0c.3.8 0 1.9 0 2.9-.2-1.3-.7-.5-1-1-.7-.3.1 1.9.6 2.2-.6 1.8 0-.6-.8.4-.6-.2.2-1.9-.3-1-.3.5 0-.4-.2.3l-.1.2v-.2c.2-2.3-.1 1.6-.8.2-.1-.2-.3.5-.3.8l-.3-1.3v.2s-.8-.2-.3-1c-1 .8-.1 2 0 2.1 5.5 2.3 3.4 6.9 5.6 4.3zm1.3-10.8h.3-.3zm-.2 2.4v0z" filter="url(#D)" transform="scale(1.06667)"/>
      <path fill="#259e25" d="M205 229.4c1-.5.8-1.4 1.5-.9 1-.1-.3-1.8 1.4-.4-.4-.4 0-1.4-.5-1.5 0 0-1.7 1.3-2.2 1.5.2-.7 1.7-2.3 2.4-1.8.5.4.2-.1.6-.7.7.1.4-.8-.2-.4-1 .6 0-.3.2-.5 0 0 1-.7 1.1-.2 0 .3.4-1 1.1-1.1-.6.2-.6-.6 0-1.2 1.2-1.3-.7.7-1.2.5-1-.3-.7 1.2-1.4 1.6-1.3 0 .8-2.4 1.2-2.6 1.1-.7 2.3-.9 3.1-.4-.3-.5.2-1.8.9-1.2 0-.3-.8-.8-1.4-.4l-1.6.5c1-.6 2-1.6 1.3-2.8.5-1.6-.6 1.2-1 1.7 0 0-1-2-1.7-2 .4.6 1.2 2.3.5 3.3-1.2 0-.5-2.1-1.6-2.6 0 1.2.7 1.2.8 2.3v.7c0 .8-1 1.5-1.6 2.3.6-1.2-.2-.8-.3-1.3-.3-.7-.9 1.6-.7 2-1.5 1.2.3-.4-.8 0-.4-.6 1.2-1.5.3-1-.5.2.2-.4-.4 0l-.2.2.2-.2c1.4-1.8-1 1.3-.8-.2 0-.3-.5.2-.7.4l.5-1.2-.3.3.1-.2s-.5-.6.4-1c-1.2.2-1.3 1.6-1.3 1.7 3.2 5.2-1 7.7 2.2 6.8zm7.2-8.1l.2.1-.2-.1zm-1.6 2z" filter="url(#E)" transform="scale(1.06667)"/>
      <path fill="#2dc02d" d="M197 226.9c.7-.7.3-1.5 1.2-1.3.8-.4-1-1.6 1.1-.8-.4-.3-.3-1.4-.8-1.3-.1 0-1.3 1.8-1.7 2 0-.6 1-2.6 1.7-2.4.6.2.2-.2.4-.8.7 0 .1-.8-.3-.3-.7.8 0-.3 0-.6 0 0 .7-1 1-.5.1.3 0-1.1.7-1.4-.5.4-.7-.4-.4-1 .8-1.7-.4.8-1 .8-.9 0-.2 1.3-.8 1.9-1.2.4 0-2.6.4-3 .9-.8 2-1.4 2.9-1.2-.5-.4-.4-1.8.4-1.4 0-.3-1-.5-1.4 0l-1.4 1c.8-.9 1.4-2.1.4-3 0-1.7-.2 1.3-.6 1.9.1 0-1.4-1.7-2-1.4.5.5 1.7 1.8 1.4 3-1.2.3-1-1.9-2.3-2 .3 1.1 1 .9 1.4 2 .2.1.3.3.3.6.1.8-.5 1.7-.9 2.7.2-1.3-.4-.7-.7-1.2-.5-.5-.3 1.8 0 2.2-1.1 1.5.1-.5-.9.2-.4-.5.8-1.8 0-1.1-.4.4.2-.4-.3.2v0c.8-2.2-.6 1.5-.9 0 0-.3-.4.4-.5.6l.1-1.3-.1.4v-.2s-.6-.4 0-1c-1 .5-.6 1.8-.6 2 4.6 3.8 1.2 7.6 4.1 5.7zm4.4-9.9h.3-.3zm-.9 2.3v.1z" filter="url(#F)" transform="scale(1.06667)"/>
      <path fill="#2dc02d" d="M193.3 218.6c.5-1 0-1.6.8-1.6.6-.7-1.4-1.2.8-1.2-.5 0-.8-1.1-1.2-.9 0 .1-.6 2.1-1 2.5-.2-.6.1-2.8.9-2.9.7 0 .1-.2.1-.9.6-.2-.2-.8-.4-.2-.4 1-.1-.2 0-.5-.2 0 .2-1.1.7-.8.1.2-.4-1 .2-1.6-.4.6-1 0-.8-.8.2-1.9-.1 1-.6 1-1 .3.1 1.4-.2 2.1-1 .9-.8-2.4-.6-2.8.5-1.2 1.4-2 2.3-2.2-.6-.2-1-1.5 0-1.4 0-.3-1.1-.2-1.4.5l-1 1.3c.5-1 .7-2.4-.6-3-.5-1.6.3 1.3.1 2 .2 0-1.9-1.1-2.4-.6.7.2 2.3 1 2.4 2.3-1 .7-1.7-1.4-2.9-1 .7.8 1.3.4 2 1.3l.5.5c.3.7 0 1.8 0 2.8-.2-1.3-.6-.5-1-.9-.6-.3.2 1.8.7 2.1-.6 1.8-.1-.5-.8.5-.6-.3.1-2-.4-1-.2.4 0-.5-.2.3v-.1c0-2.3 0 1.7-.8.3-.1-.2-.3.5-.3.8l-.3-1.3v.2s-.8-.2-.4-1c-.8.9 0 2 0 2.1 5.7 2.2 3.7 6.8 5.8 4.1zm1-10.8H194.5zm0 2.5v0z" filter="url(#G)" transform="scale(1.06667)"/>
      <path fill="#2dc02d" d="M200.4 226.4c1-.5.8-1.4 1.6-1 .9-.2-.5-1.7 1.3-.5-.4-.3 0-1.4-.6-1.4l-2 1.6c0-.7 1.5-2.4 2.2-2 .6.4.2-.1.6-.7.6.1.3-.8-.2-.4-1 .7 0-.3.2-.5-.2 0 .8-.8 1-.2 0 .2.3-1.1 1-1.2-.6.2-.6-.6-.1-1.2 1.1-1.4-.6.8-1.1.6-1-.3-.7 1.2-1.3 1.6-1.3.2.6-2.4 1-2.7 1.1-.7 2.3-1 3.1-.6-.4-.4 0-1.7.8-1.2 0-.2-.8-.7-1.4-.3l-1.6.6c1-.7 2-1.7 1.2-2.9.3-1.6-.6 1.3-1 1.8 0 0-1-2-1.8-1.9.4.6 1.4 2.2.8 3.3-1.2 0-.7-2.1-1.9-2.5.1 1.2.9 1 1 2.2l.1.7c0 .8-.9 1.6-1.5 2.4.5-1.2-.3-.7-.4-1.3-.3-.6-.7 1.6-.5 2.1-1.5 1.3.2-.5-.9 0-.4-.5 1.1-1.5.2-1-.4.2.3-.4-.3.1l-.2.1.1-.2c1.4-1.8-.9 1.4-.8-.1 0-.3-.4.2-.6.4l.4-1.2-.2.4v-.3s-.5-.5.4-1c-1.3.3-1.2 1.7-1.2 1.8 3.5 5-.6 7.7 2.6 6.6zm6.8-8.5l.2.1-.2-.1zm-1.5 2v0z" filter="url(#H)" transform="scale(1.06667)"/>
      <path fill="#2dc02d" d="M210.2 233.4c1-.5 1-1.4 1.7-.9.9-.1-.4-1.8 1.3-.4-.4-.4 0-1.4-.5-1.5 0 0-1.7 1.3-2.2 1.5.2-.7 1.7-2.3 2.4-1.8.6.4.3-.1.6-.7.7.1.4-.8-.1-.4-1 .6 0-.3.2-.5-.2 0 1-.7 1-.2 0 .3.4-1 1.2-1.1-.6.2-.7-.6-.1-1.2 1.2-1.3-.7.7-1.2.5-.9-.3-.7 1.2-1.4 1.6-1.3 0 .8-2.4 1.3-2.6 1-.7 2.3-.8 3-.4-.3-.5.3-1.8 1-1.2 0-.2-.8-.8-1.4-.4l-1.7.5c1-.6 2-1.6 1.4-2.8.5-1.6-.6 1.3-1.1 1.7 0 0-1-2-1.6-2 .3.6 1.1 2.3.5 3.3-1.2 0-.5-2.1-1.7-2.6 0 1.2.8 1.2.8 2.3l.1.7c-.1.8-1 1.5-1.6 2.3.5-1.2-.3-.8-.4-1.3-.3-.7-.8 1.6-.6 2-1.6 1.2.2-.4-1 0-.3-.6 1.3-1.5.4-1-.5.2.2-.4-.4 0l-.1.2.1-.2c1.5-1.8-1 1.3-.8-.3 0-.2-.5.3-.7.5l.5-1.2-.2.3v-.2s-.4-.6.4-1c-1.2.2-1.2 1.6-1.2 1.7 3.2 5.2-1.2 7.7 2.1 6.8zm7.3-8h.3-.3zm-1.5 1.8l-.1.1z" filter="url(#I)" transform="scale(1.06667)"/>
      <path fill="#229122" d="M196.7 229.8c.6-1 0-1.6.9-1.6.6-.7-1.4-1.3.8-1.1-.5-.1-.8-1.2-1.2-1l-1 2.5c-.3-.7.1-2.8.9-2.9.7 0 .2-.2.1-.9.6-.2-.1-.8-.3-.2-.5 1-.2-.3-.2-.5 0 0 .4-1.2.8-.8.2.2-.3-1 .3-1.6-.4.5-.9-.1-.7-.9.2-1.8-.2 1-.7 1.1-1 .3.1 1.4-.3 2-1 .9-.7-2.3-.5-2.8.6-1.1 1.4-2 2.4-2-.6-.3-.9-1.6 0-1.5 0-.3-1.1-.3-1.4.4l-1 1.4c.5-1.1.8-2.5-.5-3.1-.5-1.6.2 1.4 0 2 .1 0-1.9-1.1-2.4-.7.7.3 2.3 1.2 2.3 2.4-1 .7-1.6-1.4-2.8-1.1.7 1 1.3.5 2 1.4l.4.5c.3.7 0 1.8 0 2.8-.2-1.2-.7-.5-1-.9-.7-.3.1 1.8.6 2.1-.6 1.8 0-.5-.8.4-.6-.2.2-1.8-.3-1-.3.5 0-.4-.2.4l-.1.1v-.2c.2-2.3-.1 1.6-.8.3-.1-.3-.3.4-.3.7l-.3-1.3v.2s-.8-.2-.3-1c-1 .9-.1 2 0 2.1 5.5 2.4 3.4 7 5.6 4.3zM198 219h0zm-.1 2.5v0z" filter="url(#J)" transform="scale(1.06667)"/>
    </g>
    <g stroke="#000">
      <path fill="#b3b3b3" stroke-linecap="round" stroke-linejoin="round" stroke-width="1.62184" d="M61.4 125.4c-2.5.3-1.8 2.5-.7 3 1 .3 2 .6 2.8 1 .9.4 2 1.9 1.8 3.4l-.2 1.4c-.3 1.5-1.8 2.5-2.7 2.7h-3.5c-2.4-.2-2.4 2.2-.4 3l3.7 1A8 8 0 0 0 71 138l46.4 8.8 1.4-8.4-46.4-6.3c-.2-3.2-3.4-6.5-7.7-6.6z"/>
      <g stroke-width="5.3" transform="rotate(-11 -578.2 2656.3) scale(.30536)">
        <path fill="#1c6793" d="M1972.4 1092.8a18 18 0 1 0 12.3-33.8l-11.4-4.1-70.1-25.7-21.6-7.9c-5.7-2.2-6 .6-7.5 4.3l-8.2 22.4c-1.4 3.5.1 6 3.9 7.3l21 7.7 70.2 25.7z"/>
        <circle cx="-2227.5" cy="-331.1" r="9.6" fill="#fff" transform="rotate(-160)"/>
      </g>
    </g>
  </g>
  <path fill="#fff" fill-rule="evenodd" stroke="#000" stroke-width="1.7232049999999999" d="M137.3 97.8c-16.5 6 5 32.4-13 55.4-3.3 4.3 20 .8 28.1-22.9 8-23 .4-37-15-32.5z"/>
  <g fill-rule="evenodd">
    <path fill-opacity=".3" d="M92.4 99c-4.8 0-10 5-9.9 8.1.2 3.2 8.7 16.2 10.5 16.2 2 0 9.3-12.8 9.1-16.4-.2-3.7-6.5-8.1-9.7-7.9z"/>
    <path fill="url(#K)" stroke="#000" stroke-width="1.7" d="M706.7 87.2c-5 0-10.3 4-10 6.6.2 2.6 8.7 13.3 10.6 13.3 2 0 9.4-10.5 9.2-13.5-.2-3-6.6-6.6-9.8-6.4z" transform="matrix(1.01365 0 0 1.01365 -625.2 9.8)"/>
  </g>
  <path fill="url(#L)" fill-rule="evenodd" stroke="#000" stroke-width="1.7" d="M406.1 289c-16.3 6 14.5 34.7-12.8 54.8-7.7 5.6 19.6.7 27.7-22.6 7.9-22.7.4-36.5-14.9-32.1z" transform="matrix(1.01365 0 0 1.01365 -274.3 -195.2)"/>
</svg>
